<svg id="Layer_1" data-name="Layer 1" xmlns="http://www.w3.org/2000/svg" viewBox="0 0 459.96 141.3">
  <path d="M288.6,43.86l.36.3-3,9.15a10.35,10.35,0,0,0-2.76-.4H255.9v-.56a5.65,5.65,0,0,0,1.41-3.82V8A5.77,5.77,0,0,0,255.9,4.2V3.67h9.85v.55A7.35,7.35,0,0,0,264.35,8V48.33h14.81A11.76,11.76,0,0,0,288.6,43.86Z" transform="translate(0 0)"/>
  <path d="M208.11,46.87V31a8.63,8.63,0,0,1,.6-3.37v-.35H197.07v.65a4.61,4.61,0,0,1,3.52,4.68V47.67a29.39,29.39,0,0,1-13.82,3.77,19.25,19.25,0,0,1-14.35-6c-3.82-4-5.68-9.71-5.68-17.14,0-7.24,1.91-12.57,5.78-16.09s8.9-5.28,15.13-5.28A28.15,28.15,0,0,1,203,11.61l2.38-6.86a45.29,45.29,0,0,0-16.48-3q-14,0-22.37,8.19c-5.5,5.43-8.19,12.21-8.19,20.36,0,7.89,2.66,14.27,7.89,19.15a26.85,26.85,0,0,0,19,7.24,37,37,0,0,0,10.35-1.56,51.48,51.48,0,0,0,8.19-2.92,46.88,46.88,0,0,0,5.08-2.86V49A2.43,2.43,0,0,1,208.11,46.87Z" transform="translate(0 0)"/>
  <path d="M240.78,48.33H225.7V26.92h9.9a8.17,8.17,0,0,1,4.22,1.26h.31V21.67h-.31a3.68,3.68,0,0,1-2.46.86H225.7V8.07h11.81c4,0,5.63,1,7,4.07h.3V3h-.3a9.27,9.27,0,0,1-3.87.56H217.26v.55A5.71,5.71,0,0,1,218.66,8V48.48a5.81,5.81,0,0,1-1.4,3.82v.56h27.49a13.52,13.52,0,0,1,2.76.4l3.12-9.15-.4-.3A11.8,11.8,0,0,1,240.78,48.33Z" transform="translate(0 0)"/>
  <path d="M347.06,8a4.2,4.2,0,0,1,1.71-3.82V3.67H338.36L322.93,39.89,307.86,3.67H296.8v.55A4.39,4.39,0,0,1,298.51,8l-2.44,35.59c-.35,4.27-1.21,7.18-2.61,8.74v.56H302c-1-1.61-1.36-4.38-1.06-8.15l2.27-34.11L321.05,53.5h1.06l18-42.73,2.16,34c.3,3.57,0,6.28-1,8.15h10.9v-.56c-1.45-1.81-2.31-4.72-2.61-8.74Z" transform="translate(0 0)"/>
  <path d="M450.55,3.67c1.21,1.81,1.76,3.77,1.76,7.59l.15,27.84L416,3.24h-9.09l-.16.81A6.69,6.69,0,0,1,410,9.88l.15,39.26a5.13,5.13,0,0,1-1.78,3.66v.56h9.7c-1.2-1.81-1.86-4.53-1.86-8.35l-.15-30.86c0-.15.2-.25.3-.15l40.47,39.91h1.66l-.12-46.44A5.29,5.29,0,0,1,460,3.6V3h-9.35v.63Z" transform="translate(0 0)"/>
  <path d="M400.62,46,382.67,3.5h-7.08v.55a5.54,5.54,0,0,1,.2,5.58L360.41,46a15.67,15.67,0,0,1-3.22,4.82,21.73,21.73,0,0,1-2,1.71v.56h9.17a20.87,20.87,0,0,1,1.76-9l4.47-10.76h17l4.47,10.76a20,20,0,0,1,1.76,9h11.76v-.56A17.13,17.13,0,0,1,400.62,46ZM372.47,29l6.68-16,6.69,16Z" transform="translate(0 0)"/>
  <path d="M412.56,132.67a12.57,12.57,0,0,0,1.7,6v.45h-7.54a10.74,10.74,0,0,0,.66-5.58l-1.51-23.47-12.51,29.49h-.65l-12.46-29.71-1.51,23.68c-.2,2.56,0,4.52.65,5.58h-5.83v-.44c1.06-1.06,1.51-3,1.71-6L377,107.94a2.81,2.81,0,0,0-1.06-2.56v-.45h7.74L394,130.16,404.8,105h7.09v.45a2.39,2.39,0,0,0-1.06,2.56Z" transform="translate(0 0)"/>
  <path d="M242.92,132.67a12.57,12.57,0,0,0,1.7,6v.45h-7.54a10.74,10.74,0,0,0,.66-5.58l-1.51-23.47-12.47,29.49h-.65l-12.46-29.71-1.51,23.68c-.2,2.56,0,4.52.65,5.58H204v-.44c1.06-1.06,1.51-3,1.71-6l1.69-24.78a2.81,2.81,0,0,0-1.06-2.56v-.45H214l10.32,25.18,10.75-25.18h7.17v.45a2.39,2.39,0,0,0-1.06,2.56Z" transform="translate(0 0)"/>
  <path d="M280.06,105.08a4.67,4.67,0,0,0-1.11,2.71V136a3.33,3.33,0,0,0,1.11,2.68v.25h-5.43c0-1.11-.25-2.47-.25-4.07a16.29,16.29,0,0,1-5.68,3.26,20.27,20.27,0,0,1-6.79,1.36c-6.78,0-10.85-4.07-10.85-10.56V107.79a3.31,3.31,0,0,0-1.11-2.71v-.25h6.79c-.81,1.35-1.11,3-1.11,5.68V127.6c0,5.68,2.72,8.69,7.59,8.69a12.82,12.82,0,0,0,6.23-1.61c1.91-1.1,3.52-2.16,4.33-3.51V110.56c0-2.72-.25-4.32-1.11-5.68h7v.25H280Z" transform="translate(0 0)"/>
  <path d="M304.14,109.67a13.48,13.48,0,0,0-7.59-2.46c-3.82,0-6,2.16-6,4.62a4.21,4.21,0,0,0,1.91,3.52,20.09,20.09,0,0,0,4.07,2.47,1.27,1.27,0,0,1,.8.55,35.29,35.29,0,0,1,5.18,3.27,8.46,8.46,0,0,1,4.07,7.59,10.67,10.67,0,0,1-3,7.33,11,11,0,0,1-8.14,3,19.32,19.32,0,0,1-10.05-2.71l-1.11-6h.25a16,16,0,0,0,4.33,3.82,11.4,11.4,0,0,0,6,1.61c4.07,0,6.78-2.71,6.78-6a6.21,6.21,0,0,0-2.71-5.18,8.25,8.25,0,0,0-2.16-1.6,16.92,16.92,0,0,1-2.72-1.61l-2.69-1.33-2.16-1.36a14.66,14.66,0,0,1-1.91-1.61,8,8,0,0,1-1.61-4.62,7.78,7.78,0,0,1,2.71-6.23,11.17,11.17,0,0,1,7.59-2.47,22.22,22.22,0,0,1,7.59,1.11Z" transform="translate(0 0)"/>
  <path d="M333.89,133.33l-2.13,6.23a5.61,5.61,0,0,0-1.91-.25h-19v-.25a4.72,4.72,0,0,0,1.1-2.72V108.15a3.37,3.37,0,0,0-1.1-2.72v-.25h16.28a7.35,7.35,0,0,0,2.72-.25h.25v6.23h-.25c-1.11-2.16-2.17-2.71-4.88-2.71h-8.14v10H325a2.12,2.12,0,0,0,1.61-.55h.25v4.62h-.25a6.2,6.2,0,0,0-3-.8H316.8v14.95h10.56a13.38,13.38,0,0,0,6.54-3.36Z" transform="translate(0 0)"/>
  <path d="M366.66,105.08a4.66,4.66,0,0,0-1.1,2.71V136a3.37,3.37,0,0,0,1.1,2.72V139h-5.42c0-1.11-.26-2.47-.26-4.07a16.2,16.2,0,0,1-5.68,3.26,20.17,20.17,0,0,1-6.78,1.36c-6.79,0-10.86-4.07-10.86-10.56V107.79a3.36,3.36,0,0,0-1.1-2.71v-.25h7c-.8,1.35-1.1,3-1.1,5.68V127.6c0,5.68,2.71,8.69,7.59,8.69a12.89,12.89,0,0,0,6.31-1.62c1.91-1.1,3.52-2.16,4.32-3.51v-20.6c0-2.72-.25-4.32-1.1-5.68h7v.2Z" transform="translate(0 0)"/>
  <path d="M188.36,75.22a4.34,4.34,0,0,0-3.12-1.71,2.58,2.58,0,0,0-2.81,2.27,1.56,1.56,0,0,0,.55,1.4c.55.56,1.11.56,2.26,1.11a17,17,0,0,1,4,2,5.16,5.16,0,0,1,1.71,4,6.44,6.44,0,0,1-6.49,6.39h-.3a8.45,8.45,0,0,1-6.8-3.64l2.56-2.26a4.41,4.41,0,0,0,4,2.57,2.89,2.89,0,0,0,3.1-2.66.86.86,0,0,0,0-.16,2.61,2.61,0,0,0-.85-1.71,11.12,11.12,0,0,0-3.12-1.41,9.75,9.75,0,0,1-3.37-1.7A5,5,0,0,1,178,76c0-2.82,2-5.63,6.24-5.63a8.16,8.16,0,0,1,5.62,2.27Z" transform="translate(0 0)"/>
  <path d="M205.22,74.12V90.5h-3.65V74.12h-4.52V70.75h12.72v3.37Z" transform="translate(0 0)"/>
  <path d="M227.36,86h-7.89l-1.71,4h-4.2l8.5-19.5h3.14L233.36,90h-4Zm-1.1-3.12-2.82-7.08-2.79,7.08Z" transform="translate(0 0)"/>
  <path d="M244.52,70.67v19.5h-3.67V70.67Z" transform="translate(0 0)"/>
  <path d="M254.22,90.2V70.67h2.57l11.86,13v-13h3.71v19.5h-2.6l-11.87-13v13Z" transform="translate(0 0)"/>
  <path d="M292.83,73.82h-7.09V78h6.81V81.4h-6.79v5.38h7.09v3.37H282.1V70.67h10.75Z" transform="translate(0 0)"/>
  <path d="M306.8,70.67c2.82,0,5.08.3,7.34,2a9.61,9.61,0,0,1,3.67,7.89,9.47,9.47,0,0,1-4,7.89,10.79,10.79,0,0,1-7.09,2h-5.08V70.9A44.45,44.45,0,0,1,306.8,70.67Zm-1.44,16.16h1.11a7.54,7.54,0,0,0,4.82-1.4,6,6,0,0,0,2.57-5.08A7.8,7.8,0,0,0,311.6,75a9.37,9.37,0,0,0-4.83-1.41h-1.11V86.83Z" transform="translate(0 0)"/>
  <path d="M348.12,79.75h9v.3c0,1.41-.3,5.38-2.81,7.89a9.38,9.38,0,0,1-6.79,2.56,9.83,9.83,0,0,1-7.08-2.56,10.55,10.55,0,0,1-2.82-7.34,11.22,11.22,0,0,1,2.82-7.34,10.71,10.71,0,0,1,7.64-3.11,9.36,9.36,0,0,1,4.52,1.1,9,9,0,0,1,3.76,3.67l-3.42,1.75a4.38,4.38,0,0,0-2.26-2.26,9,9,0,0,0-2.81-.55,6.39,6.39,0,0,0-4.53,1.7,7,7,0,0,0-2,5.08,6,6,0,0,0,2,4.83,5.84,5.84,0,0,0,4.22,1.7,5.44,5.44,0,0,0,3.67-1.1,6.34,6.34,0,0,0,2-3.12h-5.07v-3.2Z" transform="translate(0 0)"/>
  <path d="M370.18,70.67V86.83h5.93V90.2h-9.9V70.67Z" transform="translate(0 0)"/>
  <path d="M395.92,86h-7.87l-1.71,4h-4l8.5-19.5h2.81L401.84,90h-4Zm-1.11-3.12L392,75.78l-2.82,7.08Z" transform="translate(0 0)"/>
  <path d="M418.36,75.22a4.34,4.34,0,0,0-3.12-1.71,2.32,2.32,0,0,0-2.55,2.07c0,.06,0,.13,0,.2a1.53,1.53,0,0,0,.55,1.4c.55.56,1.1.56,2.26,1.11a17.21,17.21,0,0,1,4,2,5.17,5.17,0,0,1,1.74,4,6.45,6.45,0,0,1-6.51,6.39h-.28A8.45,8.45,0,0,1,407.65,87l2.57-2.26a4.39,4.39,0,0,0,4,2.57,2.87,2.87,0,0,0,3.14-2.54,2.69,2.69,0,0,0-.86-1.71,11.32,11.32,0,0,0-3.14-1.39A7.22,7.22,0,0,1,410.25,80a5,5,0,0,1-1.71-3.67c0-2.82,2-5.63,6.23-5.63a8.15,8.15,0,0,1,5.59,2.25Z" transform="translate(0 0)"/>
  <path d="M438,75.22a4.34,4.34,0,0,0-3.12-1.71,2.32,2.32,0,0,0-2.55,2.07c0,.06,0,.13,0,.2a1.56,1.56,0,0,0,.55,1.4c.55.56,1.11.56,2.26,1.11a17,17,0,0,1,4,2,5.12,5.12,0,0,1,1.71,4,6.44,6.44,0,0,1-6.49,6.39h-.32A8.45,8.45,0,0,1,427.28,87l2.57-2.26a4.39,4.39,0,0,0,4,2.57A2.85,2.85,0,0,0,437,84.74a2.61,2.61,0,0,0-.85-1.71A11.3,11.3,0,0,0,433,81.67,7.22,7.22,0,0,1,429.85,80a5,5,0,0,1-1.71-3.67c0-2.82,2-5.63,6.23-5.63A8.15,8.15,0,0,1,440,72.92Z" transform="translate(0 0)"/>
  <path d="M70.65,141.3A70.65,70.65,0,1,1,141.3,70.65v0A70.73,70.73,0,0,1,70.65,141.3Zm0-139.45a68.8,68.8,0,1,0,68.79,68.82A68.8,68.8,0,0,0,70.65,1.85Z" transform="translate(0 0)"/>
  <path d="M70.65,136a65.36,65.36,0,1,1,25.52-5.17A65.34,65.34,0,0,1,70.65,136Zm0-128.81a63.48,63.48,0,1,0,63.48,63.5A63.48,63.48,0,0,0,70.65,7.17Z" transform="translate(0 0)"/>
  <path d="M70.65,133a23.45,23.45,0,0,1-14.84-5.37A33.68,33.68,0,0,1,46,113.83a44.19,44.19,0,0,1-6.08.45c-10.27,0-18.66-4.15-23-11.39-5.75-9.55-3.1-21.85,6.89-32.2a35.72,35.72,0,0,1-8.94-14.81,22,22,0,0,1,1-15.37,9.33,9.33,0,0,1,.53-1c.19-.29.35-.65.55-1,4.35-7.24,12.75-11.4,23-11.4a42.58,42.58,0,0,1,6.08.46,33.77,33.77,0,0,1,9.76-13.9,23.09,23.09,0,0,1,29.68,0,33.84,33.84,0,0,1,9.78,13.85,42.83,42.83,0,0,1,6.09-.46c10.27,0,18.66,4.16,23,11.4.19.32.38.64.55,1s.36.7.52,1a21.91,21.91,0,0,1,1,15.37,35.76,35.76,0,0,1-8.94,14.84c10,10.35,12.64,22.65,6.89,32.2-4.36,7.24-12.75,11.39-23,11.39a42.82,42.82,0,0,1-6.09-.45,33.67,33.67,0,0,1-9.8,13.86A23.45,23.45,0,0,1,70.65,133ZM46.74,112.55l.16.42c4.57,11.87,13.45,19,23.75,19s19.18-7.09,23.75-19l.16-.42.44.07a42.28,42.28,0,0,0,6.36.51c9.87,0,17.91-4,22.07-10.85C129,93.06,126.25,81.1,116.32,71l-.39-.39.39-.39c9.25-9.37,12.29-20.34,8.12-29.32-.15-.34-.32-.67-.49-1s-.34-.62-.52-.92c-4.15-6.9-12.2-10.85-22.07-10.85a42.28,42.28,0,0,0-6.36.51l-.44.07-.2-.42c-4.57-11.87-13.45-19-23.75-19s-19.18,7.09-23.75,19l-.16.42-.41-.08a42.15,42.15,0,0,0-6.35-.51c-9.87,0-17.92,4-22.07,10.85-.18.31-.36.62-.52.92s-.34.66-.5,1c-4.16,9-1.12,20,8.13,29.32l.38.42-.38.39c-9.93,10-12.65,22-7.11,31.24,4.15,6.89,12.2,10.85,22.07,10.85a42.15,42.15,0,0,0,6.35-.51Z" transform="translate(0 0)"/>
  <path d="M108.92,92.15a51.53,51.53,0,0,1-3.18-5.66C104.49,84,103.5,82,101.9,81.17a7.19,7.19,0,0,0-3-.88,7.47,7.47,0,0,0-3.79-7.8,7.6,7.6,0,0,0-3.8-.92V69.3h0a7.35,7.35,0,0,0,3.8-1,7.52,7.52,0,0,0,3.58-7.66,7.36,7.36,0,0,0,3.09-1c1.57-.92,2.49-2.92,3.66-5.45a51.43,51.43,0,0,1,3-5.75l.56-.91-1.07.06a51.89,51.89,0,0,1-6.48-.16c-2.78-.2-5-.36-6.54.57a7.35,7.35,0,0,0-2.3,2.14A7.5,7.5,0,0,0,82.05,51,7.64,7.64,0,0,0,81,52.75c-.24-.13-.48-.27-.73-.39a7.49,7.49,0,0,0-1.39-10.49,7.67,7.67,0,0,0-2.09-1.12,7.61,7.61,0,0,0,.66-3.08c0-1.82-1.25-3.63-2.83-5.92a51.15,51.15,0,0,1-3.44-5.5l-.49-.95-.49.95a51.15,51.15,0,0,1-3.44,5.5c-1.58,2.29-2.84,4.1-2.83,5.92a7.31,7.31,0,0,0,.68,3.08,7.5,7.5,0,0,0-3.49,11.61c-.25.13-.5.26-.74.41a7.49,7.49,0,0,0-9.93-3.72,7.22,7.22,0,0,0-1.73,1.09A7.18,7.18,0,0,0,46.36,48c-1.57-.93-3.76-.77-6.54-.57a52.1,52.1,0,0,1-6.49.16l-1.06-.06.56.91a51.43,51.43,0,0,1,3,5.75c1.19,2.51,2.11,4.51,3.68,5.45a7.36,7.36,0,0,0,3.09,1,7.52,7.52,0,0,0,3.58,7.66,7.41,7.41,0,0,0,3.79,1H50c0,.45-.05.9-.05,1.35v.93a7.31,7.31,0,0,0-3.83.91,7.48,7.48,0,0,0-3.79,7.83,7.19,7.19,0,0,0-3,.88c-1.6.87-2.59,2.83-3.84,5.32a51.37,51.37,0,0,1-3.16,5.66l-.59.88h1.06a51.93,51.93,0,0,1,6.48.38c1.3.13,2.48.26,3.53.26a6.1,6.1,0,0,0,3-.63,7.35,7.35,0,0,0,2.43-2.14A7.49,7.49,0,0,0,58.81,90a7.6,7.6,0,0,0,1.07-1.68c.39.23.79.46,1.19.67a7.49,7.49,0,0,0,3.48,11.62,7.24,7.24,0,0,0-.68,3.07c0,1.83,1.25,3.64,2.83,5.93a51.15,51.15,0,0,1,3.44,5.5l.49.94.49-.94a51.15,51.15,0,0,1,3.44-5.5c1.58-2.29,2.83-4.1,2.83-5.93a7.55,7.55,0,0,0-.68-3.07,7.47,7.47,0,0,0,5-7.07A7.34,7.34,0,0,0,80.16,89q.6-.31,1.17-.66A7.47,7.47,0,0,0,92.94,90.9,7.35,7.35,0,0,0,95.37,93a6.1,6.1,0,0,0,3,.63c1,0,2.22-.13,3.53-.26a51.89,51.89,0,0,1,6.47-.38h1.07ZM81.36,87h0a19.6,19.6,0,0,1-6.91,2.8l-.33.07-.09.31v.06a3.49,3.49,0,0,1-6.66,0l-.12-.37-.32-.07a19.1,19.1,0,0,1-4.67-1.54h0A19.24,19.24,0,0,1,60,87h0a20,20,0,0,1-4.14-3.64l-.21-.26-.39.09a3.65,3.65,0,0,1-.74.08A3.5,3.5,0,0,1,52,77.41l.26-.28-.1-.31a19.71,19.71,0,0,1-.94-4.69h0V70.65a14.16,14.16,0,0,1,.09-1.88,19.61,19.61,0,0,1,.9-4.29l.11-.31-.23-.24h0a3.49,3.49,0,0,1,2.54-5.88,3.65,3.65,0,0,1,.74.08l.39.08L56,58A19.47,19.47,0,0,1,60.36,54h0a19.45,19.45,0,0,1,1.85-1h0a19.78,19.78,0,0,1,4.68-1.55l.32-.06.12-.37A3.49,3.49,0,0,1,74,51l.11.37.33.06A19.78,19.78,0,0,1,79.11,53a19,19,0,0,1,1.82,1,19.49,19.49,0,0,1,4.57,3.92l.21.25.39-.08a3.55,3.55,0,0,1,.73-.08,3.49,3.49,0,0,1,2.53,5.86l-.26.28.11.31a19.61,19.61,0,0,1,.9,4.29c.06.63.09,1.26.09,1.88a11.1,11.1,0,0,1-.06,1.48,19.7,19.7,0,0,1-.93,4.69l-.11.31.26.28a3.49,3.49,0,0,1-2.54,5.88,3.65,3.65,0,0,1-.74-.08l-.38-.09-.21.26A19.67,19.67,0,0,1,81.36,87Zm3.18-36.69a6.36,6.36,0,0,1,7.79,1l.52.52.36-.64a6.26,6.26,0,0,1,2.28-2.32c1.26-.76,3.31-.61,5.89-.42,1.65.11,3.49.25,5.59.2a54.87,54.87,0,0,0-2.53,5c-1.08,2.35-1.94,4.21-3.22,5a6.21,6.21,0,0,1-3.2.87h-.71l.18.7a6.39,6.39,0,0,1-6.29,8,22.53,22.53,0,0,0-.84-3.81,4.6,4.6,0,0,0-3.54-7.54,4.14,4.14,0,0,0-.7.06,20.45,20.45,0,0,0-4.22-3.65,6.39,6.39,0,0,1,2.61-3Zm-19-8.74.72-.18-.37-.64A6.3,6.3,0,0,1,65,37.67c0-1.48,1.16-3.16,2.64-5.29a51.35,51.35,0,0,0,3-4.71,53.59,53.59,0,0,0,3,4.71c1.48,2.13,2.64,3.81,2.63,5.29a6.28,6.28,0,0,1-.84,3.14l-.37.64.72.18a6.36,6.36,0,0,1,4.65,7.71,6.24,6.24,0,0,1-1.26,2.52,20.44,20.44,0,0,0-4.24-1.39,4.6,4.6,0,0,0-8.6,0,20.52,20.52,0,0,0-4.25,1.39,6.38,6.38,0,0,1,.9-9,6.48,6.48,0,0,1,2.5-1.25ZM46.75,67.31a6.42,6.42,0,0,1-2.94-7.09l.18-.7h-.72a6.3,6.3,0,0,1-3.2-.87c-1.27-.74-2.13-2.6-3.21-5-.7-1.46-1.5-3.13-2.5-5,2.09,0,3.94-.09,5.59-.2,2.58-.19,4.62-.34,5.89.42a6.24,6.24,0,0,1,2.27,2.32l.37.64.52-.52a6.37,6.37,0,0,1,9,0,6.43,6.43,0,0,1,1.35,2A20.55,20.55,0,0,0,55.16,57a4.17,4.17,0,0,0-.71-.06,4.63,4.63,0,0,0-4,2.34,4.56,4.56,0,0,0,.47,5.2,20.06,20.06,0,0,0-.81,3.75A6.31,6.31,0,0,1,46.75,67.31Zm9.42,23.44a6.41,6.41,0,0,1-7.59-1.08l-.51-.51-.37.62a6.29,6.29,0,0,1-2.34,2.27c-1.29.71-3.33.5-5.91.23-1.64-.17-3.48-.36-5.57-.38C35,90.12,35.82,88.47,36.56,87c1.17-2.31,2.08-4.14,3.38-4.84a6.24,6.24,0,0,1,3.16-.77h.74l-.23-.71a6.37,6.37,0,0,1,4.52-7.79,6.48,6.48,0,0,1,2-.21,19.79,19.79,0,0,0,.85,4.17,4.56,4.56,0,0,0-.47,5.2,4.63,4.63,0,0,0,4,2.34,4.17,4.17,0,0,0,.71-.06A20.76,20.76,0,0,0,59,87.67,6.34,6.34,0,0,1,56.17,90.75Zm19.63,9-.72.18.37.64a6.28,6.28,0,0,1,.84,3.14c0,1.47-1.15,3.15-2.63,5.29a51.35,51.35,0,0,0-3,4.71,55.13,55.13,0,0,0-3-4.71c-1.47-2.13-2.63-3.82-2.63-5.29a6.29,6.29,0,0,1,.85-3.14l.37-.64-.72-.18a6.37,6.37,0,0,1-4.84-6.19,6.29,6.29,0,0,1,1.46-4,20.53,20.53,0,0,0,4.21,1.3,4.6,4.6,0,0,0,8.6,0,20.93,20.93,0,0,0,4.23-1.38,6.36,6.36,0,0,1-3.38,10.24Zm26.05-7.44c-2.57.27-4.61.48-5.9-.23a6.28,6.28,0,0,1-2.39-2.3l-.36-.62-.51.51a6.36,6.36,0,0,1-10.33-2,21.38,21.38,0,0,0,3.8-3.37,4.14,4.14,0,0,0,.7.06,4.63,4.63,0,0,0,4-2.34,4.58,4.58,0,0,0-.47-5.2,20.2,20.2,0,0,0,.82-4.15,6.38,6.38,0,0,1,6.66,6.07,6.29,6.29,0,0,1-.21,1.93l-.19.72h.74a6.24,6.24,0,0,1,3.16.77c1.29.7,2.21,2.53,3.38,4.84.74,1.48,1.57,3.13,2.68,4.91a55.48,55.48,0,0,0-5.58.37Z" transform="translate(0 0)"/>
  <path d="M70.65,91h0a1.79,1.79,0,0,1-1.71-1.26l-.32-1a.59.59,0,0,0-.49-.41,17.71,17.71,0,0,1-11.62-6.78.62.62,0,0,0-.59-.23l-1.07.23a1.77,1.77,0,0,1-2.16-1.29,1.76,1.76,0,0,1,.48-1.71l.74-.79a.61.61,0,0,0,.12-.63,17.89,17.89,0,0,1,0-13,.59.59,0,0,0-.12-.62l-.74-.79a1.77,1.77,0,0,1-.25-2.1,1.79,1.79,0,0,1,1.93-.87l1.07.23a.59.59,0,0,0,.59-.22A17.71,17.71,0,0,1,68.13,53a.59.59,0,0,0,.49-.41l.32-1a1.78,1.78,0,0,1,3.41,0l.33,1a.57.57,0,0,0,.49.41,17.75,17.75,0,0,1,11.62,6.78.56.56,0,0,0,.59.22l1.07-.23a1.78,1.78,0,0,1,1.67,3l-.74.79a.59.59,0,0,0-.11.62,17.89,17.89,0,0,1,0,13,.61.61,0,0,0,.11.63l.74.79a1.78,1.78,0,0,1-1.67,3l-1.09-.29a.62.62,0,0,0-.59.23,17.75,17.75,0,0,1-11.62,6.78.57.57,0,0,0-.49.41l-.33,1A1.79,1.79,0,0,1,70.65,91ZM56,80.83a1.07,1.07,0,0,1,.84.42,17.26,17.26,0,0,0,11.32,6.6,1.06,1.06,0,0,1,.87.74l.29,1.08a1.32,1.32,0,0,0,1.26.93h0a1.31,1.31,0,0,0,1.28-.93l.33-1a1,1,0,0,1,.87-.74,17.3,17.3,0,0,0,11.32-6.6,1.06,1.06,0,0,1,1.06-.4l1.06.23A1.31,1.31,0,0,0,87.78,79L87,78.19a1.07,1.07,0,0,1-.21-1.12,17.35,17.35,0,0,0,0-12.68A1.07,1.07,0,0,1,87,63.27l.74-.79A1.3,1.3,0,0,0,88,60.93a1.33,1.33,0,0,0-1.43-.64l-1.06.23a1,1,0,0,1-1.06-.39A17.35,17.35,0,0,0,73.1,53.52a1,1,0,0,1-.87-.73l-.33-1a1.31,1.31,0,0,0-1.54-1,1.29,1.29,0,0,0-1,.91l-.32,1a1,1,0,0,1-.87.73A17.31,17.31,0,0,0,56.85,60a1,1,0,0,1-1.06.39l-1.07-.23a1.32,1.32,0,0,0-1.42.64,1.3,1.3,0,0,0,.19,1.55l.74.79a1,1,0,0,1,.2,1.12,17.45,17.45,0,0,0,0,12.68,1,1,0,0,1-.2,1.12l-.74.79A1.31,1.31,0,0,0,54.72,81l1.07-.23Z" transform="translate(0 0)"/>
  <path d="M57.77,46.05a.23.23,0,0,1-.25-.19h0a50.89,50.89,0,0,0-1.65-6.31c-.82-2.66-1.48-4.76-1-6.41a7.16,7.16,0,0,1,1.56-2.68.22.22,0,0,0,0-.32l0,0a7.15,7.15,0,0,1-2.65-7.94h0a6.64,6.64,0,0,1,6.48-4.07.24.24,0,0,0,.24-.24.17.17,0,0,0,0-.07,4.43,4.43,0,0,1,.41-4c.72-.92,2.08-1.34,3.81-1.87a35.35,35.35,0,0,0,4-1.45h0a.23.23,0,0,1,.31.1.26.26,0,0,1,0,.15h0A33.82,33.82,0,0,0,68.58,15a9,9,0,0,1-.72,3.84.24.24,0,0,0,0,.26,4.88,4.88,0,0,1,.61,5.6A51.07,51.07,0,0,1,65,30.26c-1.46,2.16-2.62,3.88-2.62,5.46a6.58,6.58,0,0,0,.88,3.3h0a.24.24,0,0,1-.08.32l-.06,0h0A6.68,6.68,0,0,0,58,45.82h0a.23.23,0,0,1-.21.23ZM54.23,22.3h0A6.7,6.7,0,0,0,57.16,30h0a.24.24,0,0,1,.05.32s0,0-.05.05h0a6.56,6.56,0,0,0-1.8,2.9c-.47,1.51.16,3.55,1,6.13a46,46,0,0,1,1.37,4.92,7.15,7.15,0,0,1,4.74-5.26.23.23,0,0,0,.14-.29v0a6.93,6.93,0,0,1-.68-3c0-1.72,1.21-3.5,2.77-5.74a50.22,50.22,0,0,0,3.45-5.54h0c1.66-2.84-.74-5.28-.77-5.3h0a.27.27,0,0,1,0-.32h0c.63-.79.71-2.15.82-3.87.06-1,.14-2.18.33-3.46a.24.24,0,0,0-.2-.27.25.25,0,0,0-.12,0c-1.2.49-2.3.83-3.29,1.14-1.65.51-2.95.91-3.57,1.71a4.17,4.17,0,0,0-.07,4.22h0a.24.24,0,0,1-.13.31.25.25,0,0,1-.12,0h0A6.07,6.07,0,0,0,54.23,22.3Z" transform="translate(0 0)"/>
  <path d="M43.84,70h-.09a52,52,0,0,0-6.14-1.66c-2.72-.61-4.87-1.09-6-2.36a7.05,7.05,0,0,1-1.63-3,7.14,7.14,0,0,1-8.45-1.55h0a6.63,6.63,0,0,1-.1-7.94A4.49,4.49,0,0,1,17.82,51c-.44-1.07-.13-2.46.27-4.23a32.26,32.26,0,0,0,.71-4.14v-.45l.34.29A30.58,30.58,0,0,0,22.6,45c1.42.94,2.56,1.7,3,2.68A4.92,4.92,0,0,1,30.92,50a51.22,51.22,0,0,1,3.1,5.8c1.14,2.39,2,4.28,3.4,5.06a6.67,6.67,0,0,0,3.3.87H41L41,62a6.72,6.72,0,0,0,2.93,7.55.27.27,0,0,1,.1.33A.24.24,0,0,1,43.84,70ZM30.27,62.28l.06.3a6.67,6.67,0,0,0,1.59,3c1.07,1.16,3.15,1.63,5.79,2.22,1.5.33,3.15.7,4.95,1.26a7.2,7.2,0,0,1-2.15-7,7.18,7.18,0,0,1-3.23-.93c-1.5-.86-2.42-2.8-3.6-5.27a50.32,50.32,0,0,0-3.07-5.75h0a4.46,4.46,0,0,0-5-2h-.2L25.36,48c-.38-.94-1.51-1.69-2.95-2.64a33.82,33.82,0,0,1-3.17-2.27A33.09,33.09,0,0,1,18.53,47c-.38,1.68-.68,3-.3,3.94a4.22,4.22,0,0,0,3.63,2.17h.44L22,53.4a6.07,6.07,0,0,0-.16,7.68A6.68,6.68,0,0,0,30,62.39Z" transform="translate(0 0)"/>
  <path d="M69.56,130.14l-.41-.18a33.4,33.4,0,0,0-4-1.43c-1.73-.52-3.1-.94-3.81-1.84a4.51,4.51,0,0,1-.32-4.33,6.65,6.65,0,0,1-6.86-4h0A7.13,7.13,0,0,1,57,110.25a7.12,7.12,0,0,1-1.76-2.87c-.53-1.64.11-3.75.92-6.41a50.79,50.79,0,0,0,1.55-6.3.26.26,0,0,1,.27-.2.24.24,0,0,1,.23.24A6.69,6.69,0,0,0,63.3,101l.31.08-.16.27a6.58,6.58,0,0,0-.86,3.3c0,1.58,1.2,3.29,2.72,5.46a51.06,51.06,0,0,1,3.52,5.56,4.93,4.93,0,0,1-.67,5.72c.62.91.71,2.27.82,4a33.72,33.72,0,0,0,.49,4.25Zm-7.81-8.37-.18.4a4.19,4.19,0,0,0,.1,4.22c.62.8,1.93,1.19,3.58,1.69a34,34,0,0,1,3.68,1.27,35.76,35.76,0,0,1-.42-3.87c-.11-1.73-.21-3.09-.84-3.87l-.13-.17.15-.15a4.47,4.47,0,0,0,.73-5.31h0a51.78,51.78,0,0,0-3.5-5.51c-1.56-2.24-2.8-4-2.8-5.72a7,7,0,0,1,.78-3.28,7.16,7.16,0,0,1-5-5.31c-.4,1.84-.89,3.47-1.34,4.93-.79,2.59-1.41,4.63-.92,6.13a6.54,6.54,0,0,0,1.85,2.88l.23.21-.27.16a6.69,6.69,0,0,0-2.87,7.73,6.06,6.06,0,0,0,6.78,3.64Zm-4-27Z" transform="translate(0 0)"/>
  <path d="M18.85,98.31v-.45a33.25,33.25,0,0,0-.79-4.19c-.4-1.76-.71-3.16-.28-4.23A4.51,4.51,0,0,1,21.36,87a6.63,6.63,0,0,1,.1-7.94h0a7.14,7.14,0,0,1,8.45-1.55,6.93,6.93,0,0,1,1.62-3c1.17-1.27,3.32-1.75,6-2.36a53.92,53.92,0,0,0,6.25-1.7.22.22,0,0,1,.3.12h0a.25.25,0,0,1-.09.31h0a6.7,6.7,0,0,0-3,7.6l.09.3h-.32a6.48,6.48,0,0,0-3.3.88c-1.36.78-2.26,2.66-3.4,5.06a51.22,51.22,0,0,1-3.1,5.8,4.93,4.93,0,0,1-5.31,2.24c-.48,1-1.62,1.74-3,2.68A30.46,30.46,0,0,0,19.15,98Zm3-18.94A6.07,6.07,0,0,0,22,87.05l.28.34h-.44a4.22,4.22,0,0,0-3.63,2.17c-.38.93-.08,2.26.3,4a35.36,35.36,0,0,1,.71,3.83,38,38,0,0,1,3.13-2.24c1.44-1,2.58-1.7,2.95-2.64l.08-.19.2,0a4.47,4.47,0,0,0,5-2h0a50.53,50.53,0,0,0,3.08-5.76c1.17-2.46,2.09-4.41,3.59-5.26a6.91,6.91,0,0,1,3.23-.93,7.17,7.17,0,0,1,2.15-7c-1.8.56-3.46.93-5,1.27-2.64.59-4.73,1.06-5.79,2.22a6.62,6.62,0,0,0-1.59,3l-.07.31L30,78A6.68,6.68,0,0,0,21.85,79.37Z" transform="translate(0 0)"/>
  <path d="M49,48a.24.24,0,0,1-.32,0l0,0h0A6.59,6.59,0,0,0,46,45.76c-1.4-.71-3.47-.42-6.09,0a53.36,53.36,0,0,1-6.55.62,4.88,4.88,0,0,1-4.74-3,.24.24,0,0,0-.22-.14,9,9,0,0,1-3.76-1.07,33.73,33.73,0,0,0-4-1.49h0a.24.24,0,0,1-.16-.3.26.26,0,0,1,.07-.11h0a32.51,32.51,0,0,0,3.1-3c1.25-1.31,2.24-2.34,3.37-2.57a4.46,4.46,0,0,1,3.76,1.41.24.24,0,0,0,.33,0,.22.22,0,0,0,.05-.08,6.66,6.66,0,0,1,6.54-4h0A7.18,7.18,0,0,1,43.66,38a.23.23,0,0,0,.26.2h0a7.07,7.07,0,0,1,3.1-.19c1.7.27,3.29,1.79,5.3,3.72A51.61,51.61,0,0,0,57.27,46h0a.21.21,0,0,1,.06.3h0a.22.22,0,0,1-.3.09h0A6.68,6.68,0,0,0,49,48.05Zm-5.18-3.19a5.38,5.38,0,0,1,2.47.48,7,7,0,0,1,2.4,2,.22.22,0,0,0,.31,0l0,0a7.19,7.19,0,0,1,6.83-1.88C54.36,44.26,53.13,43.08,52,42c-2-1.87-3.5-3.35-5.05-3.6a6.68,6.68,0,0,0-3.4.35h0a.22.22,0,0,1-.3-.12.24.24,0,0,1,0-.08h0a6.68,6.68,0,0,0-5.58-6.06h0a6.06,6.06,0,0,0-6.32,4.35h0a.23.23,0,0,1-.3.15.26.26,0,0,1-.11-.07h0a4.22,4.22,0,0,0-3.81-1.83c-1,.2-1.93,1.19-3.13,2.43-.71.75-1.51,1.58-2.48,2.44a.22.22,0,0,0,0,.32.15.15,0,0,0,.11.08c1.23.4,2.29.85,3.24,1.25,1.59.68,2.85,1.21,3.84,1h0a.24.24,0,0,1,.27.16h0a4.5,4.5,0,0,0,4.09,3.07h.31a52.37,52.37,0,0,0,6.5-.62A30.45,30.45,0,0,1,43.78,44.84Z" transform="translate(0 0)"/>
  <path d="M37.61,108.89a6.53,6.53,0,0,1-6.25-4.22,4.53,4.53,0,0,1-4,1.77c-1.14-.21-2.15-1.22-3.42-2.5a32,32,0,0,0-3.17-2.88l-.35-.28.43-.13a33.57,33.57,0,0,0,4-1.58c1.55-.7,2.8-1.26,3.89-1.14a4.94,4.94,0,0,1,4.72-3.26h.12a53.36,53.36,0,0,1,6.44.48c2.63.32,4.71.57,6.1-.17a6.69,6.69,0,0,0,2.5-2.31l.17-.26.21.23a6.69,6.69,0,0,0,8,1.52.24.24,0,0,1,.31.09.26.26,0,0,1,0,.33,50.41,50.41,0,0,0-4.76,4.36c-2,2-3.52,3.53-5.22,3.83a7,7,0,0,1-3.36-.2,7.16,7.16,0,0,1-5.82,6.32h-.54Zm-6.12-5.14.15.42A6,6,0,0,0,38,108.4a6.68,6.68,0,0,0,5.46-6.18v-.31l.29.1a6.49,6.49,0,0,0,3.41.28c1.55-.28,3.06-1.79,5-3.71,1.08-1.08,2.28-2.28,3.72-3.5a7.22,7.22,0,0,1-7.06-1.92,7.05,7.05,0,0,1-2.5,2.23c-1.52.81-3.66.55-6.37.23a52.54,52.54,0,0,0-6.39-.48h-.35a4.49,4.49,0,0,0-4.12,3.16l-.06.2h-.21c-1-.19-2.23.37-3.81,1.08A36.32,36.32,0,0,1,21.44,101a37.15,37.15,0,0,1,2.84,2.63c1.22,1.22,2.18,2.19,3.18,2.36a4.19,4.19,0,0,0,3.77-1.91Z" transform="translate(0 0)"/>
  <path d="M12.22,83,12,82.24c-.43-1.41-.88-2.55-1.28-3.56a10.88,10.88,0,0,1-1-3.71h0a4.86,4.86,0,0,1,1-3l.88-1-.34-.39.34-.39-.88-1a4.86,4.86,0,0,1-1-3h0a10.82,10.82,0,0,1,1-3.7c.4-1,.85-2.15,1.28-3.57l.22-.75.23.75c.42,1.42.87,2.56,1.27,3.57a10.82,10.82,0,0,1,1,3.7h0a5.51,5.51,0,0,1-.27,1.71,3.73,3.73,0,0,1,.94-.12h0A7.52,7.52,0,0,1,18.62,69a29.93,29.93,0,0,0,3.08,1.47l.55.22-.55.22a29.85,29.85,0,0,0-3.08,1.46,7.53,7.53,0,0,1-3.23,1.19h0a3.65,3.65,0,0,1-.93-.12,5.51,5.51,0,0,1,.27,1.71h0a10.82,10.82,0,0,1-1,3.7c-.4,1-.85,2.15-1.27,3.56Zm3.2-14.91h0a3.41,3.41,0,0,0-1.26.25l-.55.22.25-.54a4.92,4.92,0,0,0,.42-2h0a10.13,10.13,0,0,0-1-3.53c-.33-.84-.7-1.77-1.06-2.88-.36,1.11-.73,2-1.06,2.88a10.35,10.35,0,0,0-1,3.53h0A4.42,4.42,0,0,0,11,68.76l1.15,1.33-.34.39.34.38L11,72.2a4.42,4.42,0,0,0-.88,2.74h0a10.3,10.3,0,0,0,1,3.52c.33.84.7,1.78,1.06,2.89.36-1.11.73-2,1.06-2.89a10.08,10.08,0,0,0,1-3.52h0a4.92,4.92,0,0,0-.42-2l-.25-.55.55.24a3.41,3.41,0,0,0,1.26.25h0a7.21,7.21,0,0,0,3-1.13c.76-.4,1.6-.84,2.6-1.27-1-.43-1.84-.87-2.6-1.27a7.08,7.08,0,0,0-3-1.13h0Z" transform="translate(0 0)"/>
  <path d="M36.6,121.51a8.44,8.44,0,0,1-2-2.37,27.23,27.23,0,0,0-1.76-2.46l-.48-.61.75.24c1.12.37,2.07.6,2.92.8a8.34,8.34,0,0,1,2.9,1h0a4.51,4.51,0,0,1,1,.9,2.89,2.89,0,0,1,.32-.6h0a6.17,6.17,0,0,1,2.28-1.6,26.16,26.16,0,0,0,2.36-1.35l.49-.32-.13.57a24.74,24.74,0,0,0-.45,2.69,5.82,5.82,0,0,1-.71,2.68h0a2.74,2.74,0,0,1-.45.51,4.66,4.66,0,0,1,1.18.59h0a8.59,8.59,0,0,1,2,2.37A28.37,28.37,0,0,0,48.57,127l.49.61-.75-.24c-1.12-.37-2.07-.6-2.91-.8a8.39,8.39,0,0,1-2.91-1h0a3.91,3.91,0,0,1-1.56-2.06l-.26-1-.41,0-.1-.4-1,.1a3.87,3.87,0,0,1-2.48-.75Zm4-2.8a2.61,2.61,0,0,0-.4.92l-.13.59-.31-.52a3.84,3.84,0,0,0-1.1-1.17h0a7.93,7.93,0,0,0-2.74-1c-.67-.15-1.4-.33-2.24-.58.52.7.94,1.33,1.32,1.9a8,8,0,0,0,1.85,2.25h0a3.5,3.5,0,0,0,2.16.67l1.44-.15.1.4H41l.36,1.4a3.47,3.47,0,0,0,1.37,1.8h0a8,8,0,0,0,2.75,1c.66.15,1.4.33,2.23.58-.52-.7-.94-1.33-1.32-1.9a8.15,8.15,0,0,0-1.84-2.25h0A4,4,0,0,0,43,122l-.6-.1.51-.33a2.82,2.82,0,0,0,.73-.69h0a5.65,5.65,0,0,0,.62-2.48c.08-.65.17-1.37.34-2.18-.71.44-1.35.77-1.93,1.07a5.66,5.66,0,0,0-2.1,1.45Z" transform="translate(0 0)"/>
  <path d="M38.86,23.32a8.39,8.39,0,0,1-2.91,1c-.84.2-1.79.43-2.91.79l-.75.25.49-.62c.74-.92,1.28-1.73,1.76-2.45a8.44,8.44,0,0,1,2-2.37h0A3.87,3.87,0,0,1,39,19.17l1,.11.1-.4h.42l.25-1a3.93,3.93,0,0,1,1.57-2h0a8.39,8.39,0,0,1,2.91-1c.84-.2,1.79-.43,2.91-.79l.75-.25-.49.62c-.74.92-1.28,1.73-1.76,2.45a8.44,8.44,0,0,1-2,2.37h0a4.35,4.35,0,0,1-1.18.59,2.74,2.74,0,0,1,.45.51h0a6,6,0,0,1,.7,2.68c.1.78.21,1.66.44,2.69l.14.57-.5-.32a24.63,24.63,0,0,0-2.29-1.31,6,6,0,0,1-2.27-1.59h0a2.89,2.89,0,0,1-.32-.6,4.51,4.51,0,0,1-1,.9Zm-.25-.4a4,4,0,0,0,1.11-1.17l.3-.52.13.59a2.61,2.61,0,0,0,.4.92h0a5.66,5.66,0,0,0,2.1,1.45c.58.3,1.22.63,1.93,1.07-.17-.82-.26-1.53-.34-2.18a5.62,5.62,0,0,0-.61-2.41h0a2.44,2.44,0,0,0-.73-.7l-.5-.32.59-.11a4,4,0,0,0,1.48-.62h0a8,8,0,0,0,1.89-2.32c.38-.57.8-1.2,1.32-1.89-.83.24-1.57.42-2.24.57a8.14,8.14,0,0,0-2.74,1h0a3.43,3.43,0,0,0-1.38,1.8L41,19.47h-.41l-.1.4L39,19.67a3.44,3.44,0,0,0-2.17.66h0A8,8,0,0,0,35,22.57c-.38.57-.8,1.2-1.32,1.89.83-.24,1.57-.42,2.24-.57a7.93,7.93,0,0,0,2.74-1Z" transform="translate(0 0)"/>
  <path d="M52.82,37.89l-1.16-.77a23,23,0,0,0-2.3-1.34A6.24,6.24,0,0,1,47,34.08h0a3.25,3.25,0,0,1-.51-2.55l.52-2.1,2.12.23a3.29,3.29,0,0,1,2.25,1.39h0a6.4,6.4,0,0,1,.76,2.84,23.62,23.62,0,0,0,.44,2.65Zm-5-4.44a5.58,5.58,0,0,0,2,1.35c.41.21.86.44,1.33.71-.08-.54-.15-1-.2-1.5a5.48,5.48,0,0,0-.59-2.34h0a2.16,2.16,0,0,0-1.46-.92l-1.12-.08-.29,1.16a2.17,2.17,0,0,0,.35,1.66Z" transform="translate(0 0)"/>
  <path d="M47.24,111.39l-.54-2.1a3.23,3.23,0,0,1,.48-2.56h0A6.17,6.17,0,0,1,49.55,105a25.47,25.47,0,0,0,2.33-1.33l1.15-.79-.3,1.37a23.52,23.52,0,0,0-.4,2.65,6.4,6.4,0,0,1-.73,2.84h0a3.21,3.21,0,0,1-2.24,1.39Zm4.17-6.16c-.47.28-.92.52-1.33.74a5.5,5.5,0,0,0-2,1.37h0a2.17,2.17,0,0,0-.33,1.66l.3,1.16L49.2,110a2.18,2.18,0,0,0,1.45-.94h0a5.52,5.52,0,0,0,.54-2.33C51.27,106.28,51.36,105.78,51.41,105.23Z" transform="translate(0 0)"/>
  <path d="M30.36,73.05h-.1a3.25,3.25,0,0,1-2.44-1h0l-1.46-1.58,1.4-1.66a3.2,3.2,0,0,1,2.36-1.08h0a6.25,6.25,0,0,1,2.78.93,24.6,24.6,0,0,0,2.46,1.1l1.31.49-1.31.54A24.5,24.5,0,0,0,33,72,6.64,6.64,0,0,1,30.36,73.05ZM28.64,71.3a2.13,2.13,0,0,0,1.6.64h0A5.62,5.62,0,0,0,32.46,71c.4-.23.84-.47,1.33-.72-.5-.22-.95-.45-1.36-.66a5.54,5.54,0,0,0-2.26-.81h0a2.12,2.12,0,0,0-1.53.69l-.77.91Z" transform="translate(0 0)"/>
  <path d="M83.56,45.6h0a.3.3,0,0,1-.28-.28,6.71,6.71,0,0,0-5.07-6l-.3-.07.15-.27a6.48,6.48,0,0,0,.89-3.3c0-1.58-1.18-3.3-2.69-5.47a52.18,52.18,0,0,1-3.5-5.54,4.92,4.92,0,0,1,.71-5.73c-.61-.91-.7-2.27-.8-4a36,36,0,0,0-.46-4.27l-.09-.44.41.19a35.35,35.35,0,0,0,4,1.45c1.73.53,3.09,1,3.8,1.87a4.51,4.51,0,0,1,.29,4.33,6.66,6.66,0,0,1,6.84,4h0a7.15,7.15,0,0,1-2.87,8.09,7,7,0,0,1,1.77,3c.52,1.65-.13,3.75-1,6.41a55.89,55.89,0,0,0-1.55,5.81A.3.3,0,0,1,83.56,45.6Zm-5-6.61a7.16,7.16,0,0,1,5,5.34c.42-1.84.92-3.46,1.37-4.92.81-2.58,1.44-4.62,1-6.13A6.42,6.42,0,0,0,84.1,30.4l-.23-.21.27-.16a6.68,6.68,0,0,0,2.92-7.72,6.07,6.07,0,0,0-6.7-3.64l-.44.07.19-.4A4.19,4.19,0,0,0,80,14.12c-.62-.8-1.92-1.2-3.57-1.71a36.49,36.49,0,0,1-3.68-1.3,33.56,33.56,0,0,1,.4,3.88c.1,1.72.19,3.08.81,3.87l.14.17-.15.15a4.46,4.46,0,0,0-.77,5.3h0A51.85,51.85,0,0,0,76.68,30c1.55,2.24,2.78,4,2.77,5.74A7,7,0,0,1,78.6,39Z" transform="translate(0 0)"/>
  <path d="M97.06,69.88h0a.24.24,0,0,1,.09-.3h0A6.66,6.66,0,0,0,100.22,62h0a.24.24,0,0,1,.17-.29h.06a6.46,6.46,0,0,0,3.29-.87c1.37-.78,2.27-2.67,3.41-5.06a48.88,48.88,0,0,1,3.1-5.8,4.9,4.9,0,0,1,5.16-2.25.23.23,0,0,0,.24-.11,9.19,9.19,0,0,1,3-2.54,31.5,31.5,0,0,0,3.46-2.52h0a.25.25,0,0,1,.34,0,.29.29,0,0,1,0,.13h0a33.41,33.41,0,0,0,.74,4.21c.4,1.77.72,3.16.28,4.23a4.38,4.38,0,0,1-3.25,2.35.23.23,0,0,0-.19.26.3.3,0,0,0,0,.1,6.63,6.63,0,0,1-.31,7.64h0a7.17,7.17,0,0,1-8.21,1.67.23.23,0,0,0-.31.11s0,0,0,0A7,7,0,0,1,109.73,66c-1.16,1.27-3.31,1.75-6,2.36A52.81,52.81,0,0,0,97.43,70h0A.23.23,0,0,1,97.1,70,.2.2,0,0,1,97.06,69.88Zm3.75-7.51a7.16,7.16,0,0,1-2.2,6.72c1.79-.56,3.45-.93,5-1.26,2.64-.59,4.72-1.06,5.79-2.22a6.65,6.65,0,0,0,1.58-3h0a.23.23,0,0,1,.29-.17l.06,0h0a6.69,6.69,0,0,0,8.13-1.3h0a6,6,0,0,0-.16-7.67h0a.24.24,0,0,1,0-.34l.11,0h0a4.25,4.25,0,0,0,3.64-2.17c.38-.93.08-2.26-.3-3.94-.23-1-.49-2.14-.66-3.42a.23.23,0,0,0-.28-.19.18.18,0,0,0-.1,0c-1,.8-2,1.44-2.84,2-1.44,1-2.58,1.7-3,2.64h0a.23.23,0,0,1-.28.14h0a4.46,4.46,0,0,0-5,2h0A50.39,50.39,0,0,0,107.56,56c-1.17,2.47-2.1,4.41-3.59,5.27a7.18,7.18,0,0,1-3,.91A.24.24,0,0,0,100.81,62.37Z" transform="translate(0 0)"/>
  <path d="M71.7,130.13l.09-.44a33.51,33.51,0,0,0,.49-4.25c.12-1.7.21-3.06.83-4a4.91,4.91,0,0,1-.67-5.73A50.93,50.93,0,0,1,76,110.16c1.52-2.17,2.72-3.88,2.73-5.46a6.67,6.67,0,0,0-.87-3.3l-.15-.27.3-.08a6.7,6.7,0,0,0,5.13-6.36.25.25,0,0,1,.49,0A51.7,51.7,0,0,0,85.18,101c.81,2.67,1.45,4.77.92,6.41a7.14,7.14,0,0,1-1.74,2.87,7.14,7.14,0,0,1,2.81,8.11h0a6.69,6.69,0,0,1-6,4,8.08,8.08,0,0,1-.85,0,4.54,4.54,0,0,1-.32,4.33c-.72.9-2.09,1.32-3.82,1.84a33.35,33.35,0,0,0-4,1.42Zm6.66-28.67a6.9,6.9,0,0,1,.79,3.27c0,1.73-1.25,3.49-2.81,5.73a48.79,48.79,0,0,0-3.5,5.51h0a4.45,4.45,0,0,0,.73,5.31l.14.15-.13.16c-.63.79-.72,2.15-.84,3.87a36.22,36.22,0,0,1-.42,3.88A34,34,0,0,1,76,128.07c1.66-.5,3-.89,3.59-1.69a4.19,4.19,0,0,0,.09-4.22l-.18-.4.44.07a6,6,0,0,0,6.75-3.65,6.68,6.68,0,0,0-2.86-7.73l-.27-.16.23-.21a6.57,6.57,0,0,0,1.85-2.87c.49-1.5-.13-3.55-.92-6.14-.44-1.46-.93-3.09-1.33-4.93A7.15,7.15,0,0,1,78.36,101.46Z" transform="translate(0 0)"/>
  <path d="M122.41,98.31l-.34-.29a30.58,30.58,0,0,0-3.46-2.52c-1.42-.94-2.56-1.7-3-2.68a4.93,4.93,0,0,1-5.31-2.24,51.22,51.22,0,0,1-3.1-5.8c-1.14-2.4-2-4.28-3.41-5.06a6.44,6.44,0,0,0-3.29-.88h-.32l.09-.3a6.71,6.71,0,0,0-3-7.57.24.24,0,0,1-.09-.32.24.24,0,0,1,.31-.13,55.32,55.32,0,0,0,6.18,1.68c2.72.61,4.87,1.09,6,2.36a6.93,6.93,0,0,1,1.62,3,7.14,7.14,0,0,1,8.45,1.55h0a6.63,6.63,0,0,1,.1,7.94,4.54,4.54,0,0,1,3.61,2.41c.43,1.07.12,2.47-.28,4.23a33.44,33.44,0,0,0-.75,4.21Zm-6.56-6,.07.19c.38.94,1.51,1.69,3,2.64,1.09.71,2.15,1.47,3.17,2.28a35.36,35.36,0,0,1,.71-3.83c.38-1.69.68-3,.3-4a4.22,4.22,0,0,0-3.63-2.17H119l.28-.34a6.16,6.16,0,0,0,.16-7.68,6.68,6.68,0,0,0-8.14-1.31l-.28.15L111,78a6.51,6.51,0,0,0-1.58-3c-1.07-1.16-3.15-1.63-5.79-2.22-1.49-.34-3.15-.71-5-1.27a7.2,7.2,0,0,1,2.15,7,6.91,6.91,0,0,1,3.23.93c1.49.85,2.42,2.8,3.59,5.26a49.7,49.7,0,0,0,3.08,5.76h0c1.64,2.86,5,2,5,2Z" transform="translate(0 0)"/>
  <path d="M92.51,48.27l-.2-.24a6.71,6.71,0,0,0-8-1.72.24.24,0,0,1-.32-.1.25.25,0,0,1,.06-.33,52.06,52.06,0,0,0,4.82-4.21c2-1.93,3.6-3.45,5.3-3.72a7.06,7.06,0,0,1,3.35.27,7.17,7.17,0,0,1,6-6.19h0a6.64,6.64,0,0,1,6.67,4.31,4.51,4.51,0,0,1,4-1.68c1.14.23,2.13,1.26,3.38,2.57a32.41,32.41,0,0,0,3.09,3l.35.29-.43.12a33.73,33.73,0,0,0-4,1.49c-1.57.66-2.83,1.2-3.92,1.06a5,5,0,0,1-4.46,3.2h-.34a51.45,51.45,0,0,1-6.55-.72c-2.62-.38-4.69-.67-6.1,0a6.64,6.64,0,0,0-2.55,2.27ZM87.2,45.21a7.18,7.18,0,0,1,5.26,2.29A7,7,0,0,1,95,45.32c1.54-.78,3.67-.47,6.38-.09a52.39,52.39,0,0,0,6.49.62h0a4.47,4.47,0,0,0,4.4-3.06l.07-.2h.2c1,.21,2.24-.32,3.83-1A34.18,34.18,0,0,1,120,40.21a35.82,35.82,0,0,1-2.8-2.71c-1.2-1.24-2.14-2.23-3.13-2.43a4.22,4.22,0,0,0-3.75,1.87l-.27.34-.14-.42a6,6,0,0,0-6.31-4.37,6.67,6.67,0,0,0-5.59,6.06v.31l-.29-.11a6.68,6.68,0,0,0-3.4-.35c-1.56.25-3.1,1.73-5,3.6-1.1,1.06-2.33,2.24-3.79,3.43A6.79,6.79,0,0,1,87.2,45.21Zm-2.84,1Z" transform="translate(0 0)"/>
  <path d="M103.66,108.89h-.5a7.17,7.17,0,0,1-5.83-6.32,6.91,6.91,0,0,1-3.35.2c-1.7-.3-3.26-1.86-5.22-3.83A49.43,49.43,0,0,0,84,94.57h0a.26.26,0,0,1-.06-.32h0a.24.24,0,0,1,.32-.09,6.7,6.7,0,0,0,8-1.51l.21-.23.17.26A6.59,6.59,0,0,0,95.12,95c1.39.74,3.47.49,6.1.17a51.43,51.43,0,0,1,6.56-.48,4.94,4.94,0,0,1,4.73,3.3c1.09-.12,2.34.44,3.89,1.14a32,32,0,0,0,4,1.58l.43.13-.36.28a33.1,33.1,0,0,0-3.16,2.88c-1.28,1.28-2.29,2.29-3.43,2.5a4.51,4.51,0,0,1-4-1.77A6.53,6.53,0,0,1,103.66,108.89Zm-.43-.49a6,6,0,0,0,6.4-4.23l.14-.42.27.35a4.19,4.19,0,0,0,3.77,1.91c1-.17,2-1.14,3.18-2.36a37.69,37.69,0,0,1,2.86-2.65,36.32,36.32,0,0,1-3.61-1.46c-1.58-.71-2.82-1.27-3.81-1.08h-.21l-.06-.2a4.47,4.47,0,0,0-4.34-3.16h0a50.65,50.65,0,0,0-6.51.48c-2.71.32-4.85.58-6.37-.23a6.91,6.91,0,0,1-2.51-2.23,7.22,7.22,0,0,1-7.07,2c1.44,1.22,2.64,2.42,3.72,3.5,1.91,1.92,3.42,3.43,5,3.71a6.45,6.45,0,0,0,3.4-.28l.3-.1v.31A6.67,6.67,0,0,0,103.23,108.4Zm-19-14.23Z" transform="translate(0 0)"/>
  <path d="M129.05,83l-.23-.76c-.42-1.41-.87-2.55-1.27-3.56a10.88,10.88,0,0,1-1-3.71h0a5.51,5.51,0,0,1,.27-1.71,3.73,3.73,0,0,1-.94.12h0a7.53,7.53,0,0,1-3.23-1.19,28.36,28.36,0,0,0-3.14-1.52l-.55-.22.55-.22a29.12,29.12,0,0,0,3.09-1.47,7.43,7.43,0,0,1,3.23-1.09h0a3.73,3.73,0,0,1,.94.12,5.51,5.51,0,0,1-.27-1.71h0a10.82,10.82,0,0,1,1-3.7c.4-1,.85-2.15,1.27-3.57l.23-.75.22.75c.43,1.42.88,2.56,1.27,3.57a10.39,10.39,0,0,1,1,3.7h0a4.91,4.91,0,0,1-1,3.06l-.88,1,.35.39-.35.39.88,1a4.86,4.86,0,0,1,1,3h0a10.6,10.6,0,0,1-1,3.7c-.39,1-.84,2.15-1.27,3.56Zm-3.21-14.91h0a7.08,7.08,0,0,0-3,1.13c-.75.4-1.59.84-2.59,1.27,1,.43,1.84.87,2.6,1.27a7.21,7.21,0,0,0,3,1.13h0a3.41,3.41,0,0,0,1.26-.25l.55-.24-.25.55a4.92,4.92,0,0,0-.42,2h0a10.08,10.08,0,0,0,1,3.52c.33.84.7,1.78,1.06,2.89.36-1.11.72-2,1.06-2.89a10.3,10.3,0,0,0,1-3.52h0a4.42,4.42,0,0,0-.88-2.74l-1.15-1.34.34-.38-.34-.39,1.15-1.33a4.42,4.42,0,0,0,.88-2.74h0a10.41,10.41,0,0,0-1-3.54c-.34-.84-.7-1.77-1.06-2.88-.36,1.11-.73,2-1.06,2.88A10.13,10.13,0,0,0,127,66h0a4.92,4.92,0,0,0,.42,2l.25.54-.55-.22a3.41,3.41,0,0,0-1.26-.25Z" transform="translate(0 0)"/>
  <path d="M101,118.45a2.89,2.89,0,0,1,.32.6,4.3,4.3,0,0,1,1-.9h0a8.39,8.39,0,0,1,2.91-1c.84-.2,1.8-.43,2.92-.8l.75-.24-.5.61c-.73.92-1.27,1.74-1.75,2.46a8.44,8.44,0,0,1-2,2.37h0a3.87,3.87,0,0,1-2.48.75l-1-.1-.1.4-.41,0-.26,1a3.91,3.91,0,0,1-1.56,2.06h0a8.39,8.39,0,0,1-2.91,1c-.84.2-1.8.43-2.91.8l-.75.24.49-.61c.73-.93,1.27-1.74,1.75-2.46a8.44,8.44,0,0,1,2-2.37h0a4.66,4.66,0,0,1,1.18-.59,2.74,2.74,0,0,1-.45-.51h0a5.82,5.82,0,0,1-.71-2.68,24.74,24.74,0,0,0-.45-2.69l-.13-.57.49.32a26.16,26.16,0,0,0,2.36,1.35,6.17,6.17,0,0,1,2.28,1.6Zm3.38,2.68a8,8,0,0,0,1.85-2.25c.38-.57.79-1.2,1.32-1.9-.84.25-1.57.43-2.24.58a8.19,8.19,0,0,0-2.75,1h0a4.08,4.08,0,0,0-1.12,1.11l-.3.52-.13-.59a2.61,2.61,0,0,0-.4-.92h0a5.66,5.66,0,0,0-2.1-1.45c-.58-.3-1.22-.63-1.93-1.07.16.81.25,1.53.33,2.18a5.59,5.59,0,0,0,.63,2.47h0a2.82,2.82,0,0,0,.73.69l.51.33-.6.1a4,4,0,0,0-1.48.63h0a8,8,0,0,0-1.85,2.25c-.37.57-.79,1.2-1.31,1.9.83-.25,1.56-.43,2.23-.58a8.19,8.19,0,0,0,2.75-1h0a3.48,3.48,0,0,0,1.38-1.8l.36-1.4h.41l.1-.4,1.44.15a3.5,3.5,0,0,0,2.16-.67Z" transform="translate(0 0)"/>
  <path d="M96,26.3l.13-.57A24.74,24.74,0,0,0,96.55,23a6,6,0,0,1,.7-2.69h0a2.74,2.74,0,0,1,.45-.51,4.35,4.35,0,0,1-1.18-.59h0a8.44,8.44,0,0,1-2-2.37,27.24,27.24,0,0,0-1.76-2.45l-.49-.62.75.25c1.12.36,2.07.59,2.91.79a8.39,8.39,0,0,1,2.91,1h0a3.89,3.89,0,0,1,1.56,2.07l.26,1h.41l.1.4,1-.11a3.9,3.9,0,0,1,2.49.75h0a8.28,8.28,0,0,1,2,2.37,27.24,27.24,0,0,0,1.76,2.45l.49.62-.75-.25c-1.12-.36-2.07-.59-2.92-.79a8.39,8.39,0,0,1-2.91-1h0a4.51,4.51,0,0,1-1-.9,2.89,2.89,0,0,1-.32.6h0a6,6,0,0,1-2.19,1.61c-.69.37-1.48.78-2.36,1.36ZM98.6,16.24a8,8,0,0,0-2.75-1c-.66-.15-1.4-.33-2.23-.57.52.69.94,1.32,1.32,1.89a8,8,0,0,0,1.85,2.24h0a4,4,0,0,0,1.48.62l.58.11-.5.32a2.53,2.53,0,0,0-.72.7h0A5.66,5.66,0,0,0,97,23c-.08.65-.16,1.36-.33,2.18.71-.44,1.35-.77,1.93-1.07a5.66,5.66,0,0,0,2.1-1.45h0a2.65,2.65,0,0,0,.4-.93l.13-.59.3.52a4,4,0,0,0,1.11,1.17h0a8.19,8.19,0,0,0,2.75,1c.67.15,1.4.33,2.24.57-.52-.69-.94-1.32-1.32-1.89a8,8,0,0,0-1.85-2.24h0a3.48,3.48,0,0,0-2.18-.67l-1.44.15-.09-.4h-.41L100,18a3.43,3.43,0,0,0-1.38-1.8Z" transform="translate(0 0)"/>
  <path d="M88.15,38.15l.37-1.35a23.58,23.58,0,0,0,.54-2.63,6.17,6.17,0,0,1,.87-2.8h0a3.27,3.27,0,0,1,2.3-1.3l2.13-.17L94.8,32a3.21,3.21,0,0,1-.62,2.52h0a6.16,6.16,0,0,1-2.45,1.61,22.45,22.45,0,0,0-2.37,1.26Zm4.17-7a2.19,2.19,0,0,0-1.49.86h0a5.63,5.63,0,0,0-.65,2.31c-.08.45-.16,1-.27,1.49.49-.26.94-.47,1.37-.67a5.55,5.55,0,0,0,2-1.27h0a2.15,2.15,0,0,0,.42-1.64l-.24-1.17Z" transform="translate(0 0)"/>
  <path d="M94.07,111.49,92,111.25a3.22,3.22,0,0,1-2.24-1.38h0A6.15,6.15,0,0,1,89,107a23.59,23.59,0,0,0-.43-2.65L88.2,103l1.17.78a23.32,23.32,0,0,0,2.33,1.33,6.23,6.23,0,0,1,2.38,1.71h0a3.21,3.21,0,0,1,.5,2.55Zm-.91-4a5.58,5.58,0,0,0-2-1.35c-.41-.22-.85-.45-1.33-.72.09.54.15,1,.2,1.5a5.56,5.56,0,0,0,.57,2.33h0a2.15,2.15,0,0,0,1.45.92l1.16.13.28-1.16a2.12,2.12,0,0,0-.34-1.66Z" transform="translate(0 0)"/>
  <path d="M110.78,73a6.47,6.47,0,0,1-2.6-1.18q-1.14-.72-2.34-1.32l-1.25-.61,1.33-.42a24.57,24.57,0,0,0,2.5-1,6.4,6.4,0,0,1,2.83-.79h0a3.25,3.25,0,0,1,2.3,1.2l1.32,1.73-1.51,1.53a3.26,3.26,0,0,1-2.49.87h-.09Zm-3.31-2.9c.48.27.9.53,1.3.78a5.45,5.45,0,0,0,2.17,1h0a2.15,2.15,0,0,0,1.62-.55l.82-.82-.72-1a2.11,2.11,0,0,0-1.51-.77h0a5.61,5.61,0,0,0-2.29.7A8.52,8.52,0,0,1,107.47,70.07Z" transform="translate(0 0)"/>
  <path d="M70.65,87.75c-2.81,0-5.23-2-6.5-5.24-3.41.49-6.27-.67-7.64-3-1.51-2.62-.83-6,1.77-8.82-2.6-2.84-3.28-6.2-1.77-8.82a6.77,6.77,0,0,1,6.11-3.2,11.25,11.25,0,0,1,1.53.11c1.27-3.28,3.69-5.24,6.5-5.24s5.23,2,6.5,5.24a11.25,11.25,0,0,1,1.53-.11,6.75,6.75,0,0,1,6.1,3.15c1.51,2.62.84,6-1.76,8.82,2.6,2.84,3.27,6.2,1.76,8.82-1.36,2.37-4.23,3.53-7.63,3C75.88,85.79,73.46,87.75,70.65,87.75ZM64.45,82l.07.18c1.18,3.2,3.47,5.12,6.13,5.12s4.94-1.92,6.13-5.12l.06-.18H77a10.21,10.21,0,0,0,1.65.14,6.29,6.29,0,0,0,5.68-2.89c1.43-2.48.72-5.7-1.85-8.42l-.15-.14.16-.16c2.57-2.72,3.28-6,1.85-8.43a6.31,6.31,0,0,0-5.7-2.91,10.11,10.11,0,0,0-1.65.14h-.19l-.06-.18C75.58,55.92,73.29,54,70.64,54s-5,1.91-6.13,5.12l-.07.18h-.19a10,10,0,0,0-1.64-.14,6.31,6.31,0,0,0-5.7,2.91c-1.43,2.48-.72,5.71,1.85,8.43l.15.16-.15.16c-2.57,2.72-3.28,5.94-1.85,8.42a6.29,6.29,0,0,0,5.7,2.92A10,10,0,0,0,64.25,82Z" transform="translate(0 0)"/>
  <path d="M70.65,84.58c-2.14,0-3.89-2.6-4.18-6a9.35,9.35,0,0,1-3.85.92h0a3.24,3.24,0,0,1-3-5.33,10.2,10.2,0,0,1,3.65-3.5h0a10.12,10.12,0,0,1-3.65-3.44,3.23,3.23,0,0,1,3-5.32h0a9.35,9.35,0,0,1,3.85.92c.29-3.46,2-6,4.18-6s3.88,2.59,4.18,6a9.35,9.35,0,0,1,3.85-.92h0A3.62,3.62,0,0,1,82,63.47a3.69,3.69,0,0,1-.36,3.76A10.29,10.29,0,0,1,78,70.67h0a10.17,10.17,0,0,1,3.65,3.43A3.69,3.69,0,0,1,82,77.86a3.63,3.63,0,0,1-3.33,1.57,9.48,9.48,0,0,1-3.88-.92C74.53,82,72.79,84.58,70.65,84.58Zm-3.12-7.86v1c0,3.16,1.46,5.82,3.11,5.82s3.08-2.69,3.12-5.82v-.92l.81.44c2.76,1.51,5.67,1.59,6.5.17a2.67,2.67,0,0,0-.35-2.69,9.17,9.17,0,0,0-3.25-3,8.45,8.45,0,0,0-1-.49l-1.11-.51,1.13-.51c.33-.15.66-.32,1-.5a8.83,8.83,0,0,0,3.25-3A2.67,2.67,0,0,0,81.1,64c-.83-1.42-3.74-1.35-6.5.17l-.81.44v-1c0-3.16-1.47-5.83-3.11-5.83s-3.1,2.66-3.14,5.83v.92l-.81-.44c-2.76-1.52-5.68-1.59-6.5-.17a2.67,2.67,0,0,0,.35,2.64,9,9,0,0,0,3.26,3,8.48,8.48,0,0,0,1,.5l1.12.51-1.12.51c-.33.15-.66.31-1,.49a9.2,9.2,0,0,0-3.26,3,2.67,2.67,0,0,0-.35,2.64c.82,1.42,3.74,1.34,6.5-.17Z" transform="translate(0 0)"/>
</svg>
