<svg id="Layer_1" data-name="Layer 1" xmlns="http://www.w3.org/2000/svg" viewBox="0 0 400.27 400.27"><path d="M200.47,400.27C90.11,400.27.33,310.49.33,200.14S90.11,0,200.47,0,400.61,89.78,400.61,200.14,310.83,400.27,200.47,400.27Zm0-395C93,5.25,5.58,92.68,5.58,200.14S93,395,200.47,395,395.36,307.6,395.36,200.14,307.93,5.25,200.47,5.25Z" transform="translate(-0.33)"/><path d="M200.47,385.21a185.12,185.12,0,0,1-72-355.6A185.12,185.12,0,0,1,272.51,370.67,184,184,0,0,1,200.47,385.21Zm0-364.9C101.31,20.31,20.64,101,20.64,200.14S101.31,380,200.47,380s179.82-80.67,179.82-179.82S299.62,20.31,200.47,20.31Z" transform="translate(-0.33)"/><path d="M200.47,376.88a66.27,66.27,0,0,1-42-15.31c-11.73-9.5-21.3-23-27.73-39.23a119.74,119.74,0,0,1-17.23,1.3c-29.1,0-52.87-11.77-65.23-32.28C32,264.31,39.47,229.47,67.77,200.14c-12.49-13-21.23-27.44-25.32-42-4.3-15.29-3.35-30.35,2.77-43.54q.69-1.5,1.47-3c.49-.92,1-1.84,1.56-2.75C60.6,88.4,84.37,76.64,113.47,76.64a118.46,118.46,0,0,1,17.24,1.3c6.43-16.19,16-29.74,27.73-39.23,12.36-10,26.89-15.32,42-15.32s29.67,5.3,42,15.32c11.72,9.49,21.29,23,27.73,39.23a118.35,118.35,0,0,1,17.24-1.3c29.1,0,52.87,11.76,65.22,32.28.54.9,1.06,1.83,1.56,2.75s1,2,1.47,3c6.11,13.19,7.07,28.25,2.77,43.54-4.09,14.52-12.83,29-25.32,42,28.3,29.33,35.79,64.17,19.52,91.22-12.36,20.51-36.13,32.28-65.23,32.28a119.74,119.74,0,0,1-17.23-1.3c-6.44,16.19-16,29.73-27.73,39.23A66.29,66.29,0,0,1,200.47,376.88Zm-67.74-58,.46,1.19c12.95,33.62,38.1,53.7,67.28,53.7s54.33-20.08,67.28-53.7l.46-1.19,1.25.2a117.47,117.47,0,0,0,18,1.45c28,0,50.76-11.21,62.53-30.76,15.7-26.09,8-60-20.14-88.48l-1.09-1.11,1.09-1.11c26.21-26.55,34.81-57.6,23-83.07-.43-.94-.9-1.88-1.39-2.81s-1-1.75-1.48-2.6C338.22,91,315.43,79.79,287.47,79.79a117.6,117.6,0,0,0-18,1.45l-1.25.19-.46-1.18c-12.95-33.63-38.1-53.71-67.28-53.71s-54.33,20.08-67.28,53.71l-.46,1.18-1.26-.19a117.37,117.37,0,0,0-18-1.45C85.5,79.79,62.71,91,51,110.55c-.52.85-1,1.73-1.48,2.6s-1,1.87-1.4,2.81c-11.79,25.47-3.19,56.52,23,83.07l1.09,1.11-1.09,1.11C43,229.73,35.25,263.64,51,289.73c11.77,19.55,34.56,30.76,62.53,30.76a117.34,117.34,0,0,0,18-1.45Z" transform="translate(-0.33)"/><path d="M308.88,261a142.56,142.56,0,0,1-9-16c-3.55-7.05-6.35-12.62-10.89-15.08a20.65,20.65,0,0,0-8.55-2.5,21.2,21.2,0,0,0-21.5-24.68c0-.88.07-1.76.07-2.62,0-1.26-.05-2.54-.13-3.82H259a21.07,21.07,0,0,0,10.74-3,21.32,21.32,0,0,0,10.16-21.7,21,21,0,0,0,8.73-2.81c4.46-2.61,7.08-8.27,10.39-15.44a143.92,143.92,0,0,1,8.48-16.3l1.59-2.56-3,.16a143.78,143.78,0,0,1-18.37-.46c-7.87-.57-14.09-1-18.53,1.62a21,21,0,0,0-6.53,6.07,21.21,21.21,0,0,0-33,7.4c-.68-.39-1.36-.77-2.05-1.13a21.21,21.21,0,0,0-9.87-32.89,20.75,20.75,0,0,0,1.91-8.7c0-5.17-3.52-10.3-8-16.79a143,143,0,0,1-9.74-15.59l-1.39-2.67-1.4,2.67a143,143,0,0,1-9.73,15.59c-4.49,6.49-8,11.62-8,16.79a20.75,20.75,0,0,0,1.91,8.7,21.21,21.21,0,0,0-9.87,32.89c-.71.38-1.42.76-2.12,1.17a21.21,21.21,0,0,0-33-7.44,20.92,20.92,0,0,0-6.52-6.07c-4.44-2.64-10.66-2.19-18.53-1.62a143.83,143.83,0,0,1-18.37.46l-3-.16,1.59,2.56a143.92,143.92,0,0,1,8.48,16.3c3.31,7.17,5.93,12.83,10.38,15.44a21,21,0,0,0,8.74,2.81,21.33,21.33,0,0,0,10.15,21.7,21.08,21.08,0,0,0,10.75,3h.16c-.08,1.28-.13,2.55-.13,3.82,0,.87,0,1.74.06,2.62a21.2,21.2,0,0,0-21.57,24.68,20.69,20.69,0,0,0-8.56,2.5c-4.54,2.46-7.34,8-10.88,15.08a144.16,144.16,0,0,1-9,16l-1.68,2.51,3-.06a143.17,143.17,0,0,1,18.35,1.06,99.8,99.8,0,0,0,10,.74,17.37,17.37,0,0,0,8.58-1.77,20.74,20.74,0,0,0,6.89-6.06,21.21,21.21,0,0,0,32.91-7.3c1.1.67,2.23,1.3,3.37,1.9A21.21,21.21,0,0,0,183.24,285a20.68,20.68,0,0,0-1.91,8.7c0,5.17,3.52,10.29,8,16.79a143.81,143.81,0,0,1,9.73,15.58l1.4,2.68,1.39-2.68a142.78,142.78,0,0,1,9.74-15.58c4.49-6.5,8-11.62,8-16.79a20.68,20.68,0,0,0-1.91-8.7,21.21,21.21,0,0,0,9.84-32.93c1.12-.59,2.22-1.21,3.31-1.87a21.19,21.19,0,0,0,32.89,7.27,20.81,20.81,0,0,0,6.88,6.06,17.43,17.43,0,0,0,8.59,1.77,99.8,99.8,0,0,0,10-.74,143.12,143.12,0,0,1,18.34-1.06l3,.06Zm-78.15-14.49h0a56.16,56.16,0,0,1-6.36,3.58,55.58,55.58,0,0,1-13.22,4.36l-.92.18-.28.89,0,.16a9.87,9.87,0,0,1-18.86,0l-.34-1.05-.91-.17a55.58,55.58,0,0,1-13.22-4.36h0a55.62,55.62,0,0,1-6.41-3.62h0a55.6,55.6,0,0,1-11.72-10.32l-.6-.71-1.1.23a9.67,9.67,0,0,1-2.08.22,9.87,9.87,0,0,1-7.19-16.64l.73-.8-.29-.88a54.84,54.84,0,0,1-2.66-13.26h0c-.1-1.41-.16-2.82-.16-4.21,0-1.77.09-3.56.26-5.33a54.56,54.56,0,0,1,2.56-12.14l.29-.89-.64-.69-.1-.11a9.88,9.88,0,0,1,7.2-16.64,10.52,10.52,0,0,1,2.09.22l1.08.24.61-.71A55.48,55.48,0,0,1,171.31,153h0a54.05,54.05,0,0,1,5.22-2.86h0a54.82,54.82,0,0,1,13.25-4.38l.92-.18.33-1.05a9.88,9.88,0,0,1,18.86,0l.32,1.06.93.18a55,55,0,0,1,13.25,4.38,52.75,52.75,0,0,1,5.16,2.82,55.06,55.06,0,0,1,12.94,11.1l.61.71,1.1-.24a10.34,10.34,0,0,1,2.08-.22,9.88,9.88,0,0,1,7.2,16.64l-.75.8.3.89a54.53,54.53,0,0,1,2.56,12.15c.17,1.77.26,3.56.26,5.32,0,1.38-.06,2.79-.16,4.2A54.92,54.92,0,0,1,253,217.61l-.29.88.74.8a9.88,9.88,0,0,1-9.29,16.42l-1.09-.23-.61.71A55.53,55.53,0,0,1,230.73,246.55Zm9-104a18,18,0,0,1,22.07,2.91l1.47,1.49,1-1.82a17.75,17.75,0,0,1,6.44-6.58c3.59-2.14,9.37-1.72,16.69-1.19,4.68.33,9.9.71,15.83.57-3,5.12-5.18,9.87-7.15,14.13-3.08,6.67-5.51,11.93-9.12,14a17.8,17.8,0,0,1-9.06,2.46h-2l.51,2a18.15,18.15,0,0,1-8.31,20.09,17.92,17.92,0,0,1-9.51,2.5,58.34,58.34,0,0,0-2.28-10.63,13,13,0,0,0-10-21.35,13.36,13.36,0,0,0-2,.15,58.86,58.86,0,0,0-12-10.33A18.13,18.13,0,0,1,239.74,142.6Zm-53.85-24.77,2-.5-1-1.81a17.8,17.8,0,0,1-2.39-8.9c0-4.17,3.28-8.94,7.45-15,2.67-3.86,5.65-8.16,8.54-13.34,2.89,5.18,5.87,9.48,8.54,13.34,4.17,6,7.47,10.81,7.45,15a17.7,17.7,0,0,1-2.4,8.9l-1,1.81,2,.5a18.06,18.06,0,0,1,9.62,29,58.54,58.54,0,0,0-12-3.94,13,13,0,0,0-24.36,0,58.63,58.63,0,0,0-12,3.94,18.07,18.07,0,0,1,9.63-29Zm-53.14,72.84a18.15,18.15,0,0,1-8.3-20.09l.5-2h-2a17.86,17.86,0,0,1-9.07-2.46c-3.6-2.11-6-7.37-9.11-14-2-4.26-4.17-9-7.15-14.13,5.92.14,11.14-.24,15.82-.57,7.33-.53,13.11-.95,16.69,1.19a17.78,17.78,0,0,1,6.45,6.58l1,1.82,1.46-1.49a18.06,18.06,0,0,1,29.5,5.54,58.65,58.65,0,0,0-11.9,10.3,12,12,0,0,0-2-.16,13,13,0,0,0-10,21.35,58.36,58.36,0,0,0-2.29,10.63A18,18,0,0,1,132.75,190.67Zm26.7,66.41a18.15,18.15,0,0,1-21.51-3.14l-1.43-1.44-1,1.74a17.74,17.74,0,0,1-6.76,6.53c-3.65,2-9.42,1.41-16.72.65-4.67-.49-9.87-1-15.8-1.09,3.15-5,5.5-9.7,7.6-13.89,3.3-6.56,5.9-11.75,9.57-13.73a17.76,17.76,0,0,1,9-2.17l2.09.05-.53-2a18,18,0,0,1,18.34-22.64,57.71,57.71,0,0,0,2.41,11.81,13,13,0,0,0,10,21.35,13.13,13.13,0,0,0,2-.15,58.57,58.57,0,0,0,10.72,9.49A18,18,0,0,1,159.45,257.08Zm55.6,25.41-2,.51,1,1.81a17.67,17.67,0,0,1,2.4,8.89c0,4.18-3.28,8.95-7.45,15-2.67,3.86-5.65,8.16-8.54,13.34-2.9-5.18-5.87-9.48-8.54-13.34-4.17-6-7.47-10.81-7.45-15a17.76,17.76,0,0,1,2.39-8.89l1-1.81-2-.51a18.06,18.06,0,0,1-9.59-29,58.86,58.86,0,0,0,12,3.93,13,13,0,0,0,24.36,0,58.22,58.22,0,0,0,12-3.92,18.06,18.06,0,0,1-9.59,29Zm73.82-21.07c-7.3.76-13.07,1.37-16.72-.65a17.74,17.74,0,0,1-6.76-6.53l-1.05-1.74-1.43,1.44a18.07,18.07,0,0,1-29.39-5.47,58.81,58.81,0,0,0,10.77-9.54,13.36,13.36,0,0,0,2,.15,13,13,0,0,0,10-21.35,57.85,57.85,0,0,0,2.41-11.81A18,18,0,0,1,277,228.56l-.53,2,2.09-.05a17.73,17.73,0,0,1,8.95,2.17c3.67,2,6.28,7.17,9.57,13.73,2.11,4.19,4.46,8.86,7.61,13.89C298.74,260.38,293.54,260.93,288.87,261.42Z" transform="translate(-0.33)"/><path d="M200.47,257.84h0a5,5,0,0,1-4.83-3.56l-.92-2.93a1.65,1.65,0,0,0-1.38-1.15A50.26,50.26,0,0,1,160.41,231a1.66,1.66,0,0,0-1.67-.63l-3,.65a5.06,5.06,0,0,1-4.76-8.41l2.1-2.23a1.68,1.68,0,0,0,.32-1.77,50.67,50.67,0,0,1,0-36.91,1.66,1.66,0,0,0-.32-1.76l-2.1-2.24a5.06,5.06,0,0,1,4.76-8.41l3,.66a1.66,1.66,0,0,0,1.67-.64,50.25,50.25,0,0,1,32.93-19.21,1.67,1.67,0,0,0,1.38-1.15l.92-2.94a5.06,5.06,0,0,1,9.66,0l.91,2.94a1.69,1.69,0,0,0,1.39,1.15,50.25,50.25,0,0,1,32.93,19.21,1.66,1.66,0,0,0,1.67.64l3-.66a5.06,5.06,0,0,1,4.76,8.41l-2.1,2.24a1.64,1.64,0,0,0-.32,1.76,50.67,50.67,0,0,1,0,36.91,1.66,1.66,0,0,0,.32,1.77l2.1,2.23a5.06,5.06,0,0,1-4.76,8.41l-3-.65a1.66,1.66,0,0,0-1.67.63A50.26,50.26,0,0,1,207.6,250.2a1.68,1.68,0,0,0-1.39,1.15l-.91,2.93A5,5,0,0,1,200.47,257.84ZM159.09,229a3,3,0,0,1,2.38,1.19,49,49,0,0,0,32.06,18.71A3,3,0,0,1,196,251l.91,2.94a3.71,3.71,0,0,0,3.56,2.61h0a3.71,3.71,0,0,0,3.56-2.61l.91-2.94a3,3,0,0,1,2.47-2.07,49,49,0,0,0,32.06-18.71,3,3,0,0,1,3-1.12l3,.65a3.72,3.72,0,0,0,3.5-6.19l-2.09-2.24a3,3,0,0,1-.59-3.16,49.46,49.46,0,0,0,0-35.94,3,3,0,0,1,.59-3.17l2.09-2.23a3.72,3.72,0,0,0-3.5-6.19l-3,.65a3,3,0,0,1-3-1.12,48.89,48.89,0,0,0-32.06-18.71,3,3,0,0,1-2.47-2.07l-.91-2.94a3.73,3.73,0,0,0-7.12,0l-.91,2.94a3,3,0,0,1-2.47,2.07,48.89,48.89,0,0,0-32.06,18.71,3,3,0,0,1-3,1.12l-3-.65a3.73,3.73,0,0,0-3.51,6.19L154,179a3,3,0,0,1,.59,3.17,49.32,49.32,0,0,0,0,35.94,3,3,0,0,1-.59,3.16l-2.1,2.24a3.73,3.73,0,0,0,3.51,6.19l3-.65A2.79,2.79,0,0,1,159.09,229Z" transform="translate(-0.33)"/><path d="M164,130.46a.66.66,0,0,1-.71-.54v0A148.33,148.33,0,0,0,158.59,112c-2.34-7.54-4.2-13.5-2.72-18.16a20,20,0,0,1,4.41-7.6.66.66,0,0,0-.1-1,20.25,20.25,0,0,1-7.5-22.51v0c.05-.13,4.84-12.35,18.34-11.55a.66.66,0,0,0,.67-.87c-1.77-5.39-.2-9.56,1.17-11.31,2-2.58,5.88-3.78,10.78-5.29a94.16,94.16,0,0,0,11.4-4.11h0a.67.67,0,0,1,.93.73h0a92.24,92.24,0,0,0-1.31,12c-.29,4.59-.52,8.31-2,10.88a.65.65,0,0,0,.06.74c1.74,2.17,5.94,8.59,1.7,15.85a145,145,0,0,1-9.86,15.81c-4.27,6.17-7.64,11-7.62,15.5a18.67,18.67,0,0,0,2.52,9.35h0a.67.67,0,0,1-.42,1h0a19,19,0,0,0-14.41,18.28h0a.66.66,0,0,1-.6.66ZM154,63.18s0,0,0,.06a18.93,18.93,0,0,0,8.28,21.82h0a.67.67,0,0,1,.11,1.06h0a18.57,18.57,0,0,0-5.19,8.17c-1.35,4.25.45,10,2.72,17.35,1.29,4.15,2.72,8.74,3.88,13.94a20.3,20.3,0,0,1,13.41-14.91.66.66,0,0,0,.38-.91,19.84,19.84,0,0,1-1.94-8.57c0-4.88,3.45-9.9,7.85-16.27a144.86,144.86,0,0,0,9.79-15.68l0,0c4.69-8-2.11-15-2.18-15h0a.67.67,0,0,1,0-.89h0c1.78-2.24,2-6.09,2.32-11,.18-2.93.38-6.19.92-9.81a.67.67,0,0,0-.91-.72C190,33.18,186.85,34.14,184,35c-4.67,1.45-8.36,2.59-10.12,4.84-1.25,1.61-2.91,6.18-.2,12h0a.66.66,0,0,1-.7.94h0C159.2,50.62,154.33,62.24,154,63.18Z" transform="translate(-0.33)"/><path d="M124.52,198.19a.67.67,0,0,1-.24,0,148.24,148.24,0,0,0-17.41-4.7c-7.7-1.73-13.79-3.09-17.09-6.69a20.08,20.08,0,0,1-4.61-8.34A20.28,20.28,0,0,1,61.23,174l0,0c-.09-.11-8.71-10.86-.3-22.5-6.21-.92-9.33-4.65-10.22-6.82-1.24-3-.35-7,.78-12a93.52,93.52,0,0,0,2.12-11.94l.13-1.27,1,.83a93,93,0,0,0,9.79,7.14c4,2.66,7.26,4.79,8.64,7.58,2.24-.42,10.6-1.4,15,6.34A144.3,144.3,0,0,1,97,157.82c3.22,6.77,5.77,12.12,9.64,14.32a18.6,18.6,0,0,0,9.34,2.48h.9l-.24.85a19,19,0,0,0,8.3,21.38.73.73,0,0,1,.27.93A.71.71,0,0,1,124.52,198.19Zm-.32-.2Zm.52-1.1h0ZM86.07,176.42l.2.87a18.63,18.63,0,0,0,4.49,8.57c3,3.29,8.93,4.61,16.4,6.29,4.24.94,8.94,2,14,3.58a20.39,20.39,0,0,1-6.09-19.79,20,20,0,0,1-9.16-2.64c-4.24-2.41-6.86-7.93-10.19-14.91A144,144,0,0,0,87,142.09l0,0c-4.62-8.07-13.73-5.71-14.12-5.61l-.57.15-.22-.55c-1.06-2.65-4.28-4.78-8.36-7.48a101.32,101.32,0,0,1-9-6.43,100.91,100.91,0,0,1-2,10.85c-1.07,4.77-1.92,8.54-.85,11.19.77,1.88,3.91,5.59,10.29,6.13l1.24.11-.78,1c-8.83,11-.93,21.14-.44,21.75a18.93,18.93,0,0,0,23.06,3.71Z" transform="translate(-0.33)"/><path d="M197.38,368.66l-1.16-.51a94.74,94.74,0,0,0-11.43-4c-4.91-1.48-8.78-2.65-10.81-5.23-1.46-1.84-3.17-6.39-.9-12.25-14.27,1.58-19.38-11.21-19.43-11.35l0,0a20.28,20.28,0,0,1,8-23,19.77,19.77,0,0,1-5-8.12c-1.51-4.64.3-10.61,2.6-18.16a148.23,148.23,0,0,0,4.51-17.66.71.71,0,0,1,1.4.11,19,19,0,0,0,14.52,17.94l.86.21-.43.77a18.58,18.58,0,0,0-2.46,9.36c0,4.46,3.41,9.31,7.71,15.45a143.08,143.08,0,0,1,10,15.75c4.55,7.69-.42,14.48-1.9,16.22,1.75,2.57,2,6.43,2.34,11.25a95.47,95.47,0,0,0,1.39,12ZM175.27,345l-.52,1.14c-2.67,5.81-1,10.37.27,12,1.77,2.24,5.47,3.36,10.15,4.77a101.66,101.66,0,0,1,10.44,3.6,99.81,99.81,0,0,1-1.19-11c-.33-4.88-.59-8.73-2.38-11l-.38-.47.42-.42c.28-.28,6.82-7.05,2.08-15.05l0,0a143,143,0,0,0-9.89-15.62c-4.44-6.34-7.94-11.34-7.95-16.22a19.92,19.92,0,0,1,2.22-9.26,20.36,20.36,0,0,1-14.23-15.06c-1.13,5.22-2.53,9.82-3.79,14-2.22,7.33-4,13.12-2.61,17.37a18.66,18.66,0,0,0,5.24,8.14l.66.6-.75.46a18.93,18.93,0,0,0-8.14,21.9c.28.73,5.19,12.58,19.14,10.33Zm-11.46-76.5h0Z" transform="translate(-0.33)"/><path d="M53.74,278.5l-.12-1.26a94.85,94.85,0,0,0-2.13-11.94c-1.13-5-2-8.95-.79-12,.89-2.17,4-5.91,10.22-6.83-8.42-11.63.2-22.39.29-22.5l0,0a20.28,20.28,0,0,1,23.94-4.4,19.89,19.89,0,0,1,4.6-8.34c3.3-3.6,9.39-5,17.09-6.7a148.79,148.79,0,0,0,17.68-4.81.69.69,0,0,1,.86.35h0a.69.69,0,0,1-.25.88l0,0a19,19,0,0,0-8.53,21.53l.24.85H116a18.71,18.71,0,0,0-9.35,2.48c-3.87,2.21-6.42,7.56-9.64,14.34a144.18,144.18,0,0,1-8.78,16.44c-4.44,7.75-12.8,6.77-15,6.34-1.38,2.79-4.61,4.93-8.64,7.59a94.32,94.32,0,0,0-9.79,7.15Zm8.49-53.65c-.49.61-8.39,10.72.45,21.75l.78,1-1.24.11c-6.38.54-9.51,4.25-10.28,6.14-1.08,2.65-.23,6.42.85,11.19a100.74,100.74,0,0,1,2,10.85,101.56,101.56,0,0,1,9-6.44c4.08-2.7,7.3-4.83,8.36-7.49l.22-.55.57.16c.39.1,9.49,2.45,14.12-5.62v0a142.45,142.45,0,0,0,8.71-16.31c3.32-7,5.94-12.5,10.18-14.91A19.81,19.81,0,0,1,115.1,222a20.34,20.34,0,0,1,6.07-19.8c-5.09,1.59-9.78,2.64-14,3.59-7.47,1.68-13.38,3-16.39,6.3a18.6,18.6,0,0,0-4.5,8.57l-.19.87-.78-.43A18.93,18.93,0,0,0,62.23,224.85ZM125,201Z" transform="translate(-0.33)"/><path d="M139,136.06A.67.67,0,0,1,138,136h0a18.61,18.61,0,0,0-7.23-6.43c-4-2-9.85-1.18-17.27-.12a144.07,144.07,0,0,1-18.56,1.76c-8.39.53-12.25-6.08-13.41-8.61a.66.66,0,0,0-.64-.38c-3,.2-6.41-1.25-10.64-3A95.12,95.12,0,0,0,58.85,115h0a.66.66,0,0,1-.24-1.15h0a94.17,94.17,0,0,0,8.78-8.37c3.54-3.7,6.34-6.63,9.55-7.27,2.17-.44,6.61,0,10.64,4a.67.67,0,0,0,1.08-.21C94,89.52,107.05,90.7,107.19,90.72h0A20.26,20.26,0,0,1,124,107.49a.66.66,0,0,0,.83.53,20,20,0,0,1,8.78-.55c4.82.76,9.32,5.08,15,10.55a147.1,147.1,0,0,0,13.94,12.2h0a.66.66,0,0,1,.17.88v0a.67.67,0,0,1-.86.25h0a19,19,0,0,0-22.83,4.7Zm-14.69-9a15.35,15.35,0,0,1,7,1.37,20,20,0,0,1,6.8,5.57.66.66,0,0,0,1,.06,20.28,20.28,0,0,1,19.33-5.33c-4.13-3.36-7.6-6.69-10.74-9.7-5.52-5.3-9.89-9.49-14.3-10.19a18.58,18.58,0,0,0-9.63,1h0a.67.67,0,0,1-.9-.57h0a18.93,18.93,0,0,0-15.82-17.16h0c-1-.09-13.58-.93-17.85,12.39h0a.67.67,0,0,1-1.16.21h0c-4-5-8.8-5.58-10.79-5.18-2.81.57-5.48,3.36-8.86,6.9-2,2.12-4.28,4.47-7,6.89a.66.66,0,0,0,.23,1.13c3.49,1.14,6.49,2.41,9.19,3.56,4.5,1.91,8.06,3.42,10.85,2.84h0a.66.66,0,0,1,.77.44h0c.13.36,3,8.69,11.59,8.69l.89,0h0a144.35,144.35,0,0,0,18.41-1.75A84,84,0,0,1,124.35,127Z" transform="translate(-0.33)"/><path d="M106.86,308.48c-3.65,0-13.43-1.06-17.75-11.84-4.1,4.76-8.93,5.41-11.23,5-3.23-.57-6.09-3.44-9.71-7.06a94.39,94.39,0,0,0-9-8.17l-1-.79,1.21-.37a95,95,0,0,0,11.28-4.47c4.4-2,7.93-3.57,11-3.24.84-2.12,4.47-9.72,13.4-9.34h.34a146.09,146.09,0,0,1,18.25,1.36c7.45.9,13.33,1.6,17.26-.49a18.67,18.67,0,0,0,7.1-6.59l.47-.75.59.66a19,19,0,0,0,22.72,4.31.7.7,0,0,1,.9.25.69.69,0,0,1-.16.93,148.33,148.33,0,0,0-13.47,12.34c-5.58,5.59-10,10-14.79,10.87a20,20,0,0,1-9.51-.56,20.27,20.27,0,0,1-16.5,17.89h0A10.57,10.57,0,0,1,106.86,308.48ZM89.55,293.91l.41,1.18c4.6,13.37,17.36,12.09,18.14,12a18.93,18.93,0,0,0,15.46-17.51l0-.88.84.29a18.63,18.63,0,0,0,9.65.78c4.39-.79,8.67-5.07,14.08-10.5,3.07-3.07,6.46-6.48,10.52-9.94a20.31,20.31,0,0,1-20-5.43,19.91,19.91,0,0,1-7.12,6.33c-4.31,2.3-10.37,1.57-18,.64a146.17,146.17,0,0,0-18.09-1.34h-.38l-.6,0c-8.82,0-11.57,8.58-11.69,8.95l-.17.57-.59-.11c-2.81-.53-6.33,1.06-10.79,3.07A101.39,101.39,0,0,1,61,286.13a102.16,102.16,0,0,1,8.1,7.49c3.46,3.47,6.19,6.2,9,6.7,2,.36,6.82-.31,10.68-5.41Zm72.9-26Zm-.68-1.06Z" transform="translate(-0.33)"/><path d="M35,235.13,34.31,233c-1.2-4-2.47-7.25-3.6-10.11-1.62-4.11-2.9-7.35-2.89-10.49v-.07a13.64,13.64,0,0,1,2.81-8.64l2.49-2.89-1-1.11,1-1.11-2.49-2.89a13.63,13.63,0,0,1-2.81-8.63V187c0-3.15,1.27-6.39,2.89-10.5,1.13-2.85,2.4-6.09,3.6-10.1l.64-2.14.64,2.14c1.2,4,2.48,7.25,3.6,10.1,1.62,4.11,2.9,7.35,2.9,10.49v.08a15.68,15.68,0,0,1-.78,4.84,11.37,11.37,0,0,1,2.67-.35h.09c2.76,0,5.59,1.49,9.16,3.37A86.83,86.83,0,0,0,62,199.06l1.55.62L62,200.3a85.79,85.79,0,0,0-8.73,4.15c-3.57,1.88-6.4,3.37-9.16,3.37H44a11.42,11.42,0,0,1-2.66-.35,15.69,15.69,0,0,1,.78,4.85v.07c0,3.14-1.28,6.38-2.9,10.49-1.12,2.86-2.4,6.09-3.6,10.11ZM44,192.88h0a9.66,9.66,0,0,0-3.56.71l-1.56.64.71-1.54A14,14,0,0,0,40.75,187V187c0-2.89-1.17-5.87-2.8-10-.94-2.38-2-5-3-8.16-1,3.14-2.06,5.78-3,8.16-1.63,4.13-2.81,7.11-2.8,10V187a12.34,12.34,0,0,0,2.49,7.77l3.24,3.77-1,1.1,1,1.1-3.25,3.77a12.34,12.34,0,0,0-2.49,7.77v.08c0,2.88,1.17,5.86,2.8,10,.94,2.38,2,5,3,8.16,1-3.14,2.06-5.78,3-8.16,1.63-4.13,2.81-7.11,2.8-10v-.07a13.92,13.92,0,0,0-1.19-5.67l-.71-1.55,1.57.65a9.49,9.49,0,0,0,3.57.73h.08c2.43,0,5-1.35,8.54-3.22,2.13-1.12,4.51-2.37,7.35-3.59-2.84-1.22-5.22-2.47-7.35-3.59-3.55-1.86-6.11-3.21-8.54-3.21H44Z" transform="translate(-0.33)"/><path d="M104,344.23c-2.08-1.44-3.63-3.77-5.59-6.72-1.36-2-2.89-4.35-5-7l-1.39-1.75,2.12.7c3.17,1,5.87,1.68,8.25,2.25,3.45.81,6.17,1.45,8.24,2.91l0,0a12.74,12.74,0,0,1,2.71,2.56,8.78,8.78,0,0,1,.91-1.71l0-.05c1.28-1.84,3.56-3,6.45-4.52a69,69,0,0,0,6.69-3.82l1.4-.92-.38,1.63a67.16,67.16,0,0,0-1.26,7.6c-.41,3.23-.72,5.77-2,7.61l0,.05a8.81,8.81,0,0,1-1.28,1.45,12.52,12.52,0,0,1,3.34,1.65l0,0c2.08,1.45,3.63,3.77,5.59,6.72,1.35,2,2.89,4.35,5,7l1.39,1.75-2.12-.7c-3.17-1-5.87-1.68-8.26-2.24-3.44-.82-6.16-1.46-8.24-2.91l0,0a11.1,11.1,0,0,1-4.43-5.86l-.73-2.84-1.16.13-.29-1.14-2.91.3a11,11,0,0,1-7-2.12Zm11.43-7.94a7.69,7.69,0,0,0-1.14,2.61l-.37,1.66-.85-1.46a10.93,10.93,0,0,0-3.13-3.32l0,0c-1.87-1.31-4.35-1.89-7.78-2.71-1.89-.44-4-.94-6.34-1.64,1.48,2,2.67,3.76,3.74,5.37,1.95,2.94,3.36,5.07,5.24,6.36l0,0a9.87,9.87,0,0,0,6.14,1.9l4.06-.42.29,1.13,1.16-.14,1,4a9.92,9.92,0,0,0,3.91,5.1l0,0c1.86,1.31,4.34,1.9,7.78,2.71,1.89.44,4,.94,6.33,1.64-1.48-2-2.66-3.75-3.73-5.37-2-2.94-3.37-5.06-5.24-6.36l0,0a11,11,0,0,0-4.2-1.78l-1.68-.3,1.44-.92a7.57,7.57,0,0,0,2.06-2l0,0c1.11-1.57,1.39-3.85,1.78-7,.23-1.84.48-3.87,1-6.17-2,1.23-3.82,2.17-5.46,3-2.83,1.47-4.87,2.53-6,4.1Z" transform="translate(-0.33)"/><path d="M110.43,66.06c-2.08,1.45-4.8,2.09-8.25,2.9-2.38.56-5.08,1.2-8.25,2.24l-2.12.7,1.39-1.75c2.08-2.61,3.62-4.92,5-7,2-3,3.51-5.28,5.59-6.72l0,0a11.06,11.06,0,0,1,7-2.12l2.92.31.28-1.14,1.17.13.73-2.84a11,11,0,0,1,4.44-5.85l0,0c2.08-1.45,4.8-2.09,8.25-2.9,2.38-.56,5.08-1.2,8.26-2.24l2.12-.7-1.4,1.75c-2.08,2.61-3.62,4.92-5,7-2,2.94-3.51,5.27-5.6,6.71l0,0a12.46,12.46,0,0,1-3.33,1.65A9.35,9.35,0,0,1,125,57.61l0,.06c1.28,1.83,1.59,4.38,2,7.6a69.77,69.77,0,0,0,1.25,7.61l.38,1.63-1.39-.93a69,69,0,0,0-6.69-3.82c-2.89-1.5-5.17-2.68-6.44-4.53l0,0a9,9,0,0,1-.9-1.71A13,13,0,0,1,110.48,66Zm-.72-1.12a11.16,11.16,0,0,0,3.13-3.32l.86-1.48.37,1.67a7.53,7.53,0,0,0,1.13,2.62l0,0c1.09,1.58,3.14,2.64,6,4.1,1.64.85,3.46,1.8,5.45,3-.46-2.3-.71-4.33-.93-6.16-.39-3.16-.67-5.45-1.77-7l0,0a7.53,7.53,0,0,0-2.05-2l-1.42-.92,1.66-.3a11.06,11.06,0,0,0,4.2-1.78l0,0c1.87-1.29,3.28-3.42,5.24-6.35,1.07-1.62,2.26-3.4,3.74-5.37-2.36.7-4.45,1.19-6.33,1.64-3.44.81-5.92,1.39-7.79,2.69l0,0a9.86,9.86,0,0,0-3.91,5.09l-1,4L115.07,55l-.28,1.13-4.07-.42a9.8,9.8,0,0,0-6.14,1.89l0,0c-1.87,1.29-3.29,3.42-5.25,6.36-1.07,1.61-2.26,3.39-3.74,5.36,2.37-.7,4.45-1.19,6.34-1.63,3.43-.81,5.92-1.4,7.78-2.7Zm17-11h0Z" transform="translate(-0.33)"/><path d="M150,107.33l-3.29-2.19a71.56,71.56,0,0,0-6.61-3.78c-3-1.55-5.37-2.78-6.77-4.82l0-.06a9.15,9.15,0,0,1-1.45-7.21l1.47-6,6,.66a9.24,9.24,0,0,1,6.36,3.92l0,0c1.43,2,1.76,4.68,2.17,8a69.36,69.36,0,0,0,1.24,7.51ZM135.89,94.75c1,1.4,2.92,2.41,5.63,3.82,1.17.61,2.43,1.26,3.78,2-.25-1.53-.42-2.94-.59-4.25-.37-3-.64-5.22-1.61-6.61l0,0A6.16,6.16,0,0,0,139,87.1l-3.27-.36L134.87,90a6.06,6.06,0,0,0,1,4.69Z" transform="translate(-0.33)"/><path d="M134.15,315.54l-1.54-5.94a9.17,9.17,0,0,1,1.38-7.24l0-.05c1.38-2.05,3.73-3.31,6.71-4.9a67.82,67.82,0,0,0,6.56-3.85l3.27-2.22-.85,3.86a69.64,69.64,0,0,0-1.15,7.52c-.37,3.36-.67,6-2.06,8l0,.06a9.22,9.22,0,0,1-6.31,4ZM146,298.11c-1.34.79-2.59,1.46-3.76,2.08-2.69,1.44-4.64,2.48-5.58,3.88l0,0a6.1,6.1,0,0,0-1,4.7l.85,3.28,3.27-.4a6.13,6.13,0,0,0,4.09-2.66l0,0c.94-1.38,1.19-3.57,1.52-6.61C145.58,301.06,145.74,299.65,146,298.11Z" transform="translate(-0.33)"/><path d="M86.32,206.93H86a9.23,9.23,0,0,1-6.91-2.83h0L75,199.63l4-4.69a9.15,9.15,0,0,1,6.69-3.07h.06c2.47-.06,4.86,1.13,7.88,2.64a69.85,69.85,0,0,0,6.94,3.12l3.71,1.38-3.64,1.55a70.18,70.18,0,0,0-6.8,3.41C91,205.55,88.7,206.81,86.32,206.93ZM81.43,202a6.09,6.09,0,0,0,4.54,1.8h0c1.67,0,3.61-1.1,6.28-2.58,1.15-.64,2.4-1.33,3.79-2-1.42-.64-2.69-1.27-3.87-1.86C89.48,196,87.51,195,85.82,195h-.07a6,6,0,0,0-4.35,2l-2.18,2.58Z" transform="translate(-0.33)"/><path d="M237,129.18H237a.85.85,0,0,1-.79-.78,18.94,18.94,0,0,0-14.36-16.89l-.85-.21.44-.77a18.66,18.66,0,0,0,2.51-9.35c0-4.46-3.35-9.33-7.61-15.5a144.91,144.91,0,0,1-9.87-15.81c-4.5-7.72.52-14.48,2-16.21-1.73-2.58-2-6.44-2.27-11.26a94,94,0,0,0-1.31-12l-.23-1.26,1.16.53a94.16,94.16,0,0,0,11.4,4.11C222.11,35.24,226,36.44,228,39c1.44,1.85,3.12,6.42.82,12.27,14.28-1.5,19.31,11.33,19.36,11.46v0a20.26,20.26,0,0,1-8.13,22.94A20,20,0,0,1,245,93.88c1.47,4.66-.38,10.62-2.72,18.15a155.86,155.86,0,0,0-4.41,16.46A.84.84,0,0,1,237,129.18Zm-14-18.74a20.28,20.28,0,0,1,14.13,15.14c1.16-5.21,2.59-9.81,3.88-13.94,2.27-7.32,4.06-13.1,2.72-17.35a18.57,18.57,0,0,0-5.19-8.17l-.65-.6.75-.46a18.94,18.94,0,0,0,8.28-21.85c-.28-.73-5.11-12.61-19.07-10.45L226.6,53l.53-1.13c2.71-5.8,1.06-10.37-.19-12-1.76-2.25-5.45-3.39-10.12-4.84a99.67,99.67,0,0,1-10.41-3.66,100.69,100.69,0,0,1,1.11,11c.3,4.88.54,8.73,2.32,11l.37.47-.43.42c-.28.28-6.86,7-2.17,15l0,0a141.8,141.8,0,0,0,9.79,15.68c4.39,6.37,7.87,11.39,7.85,16.27A20,20,0,0,1,223,110.44Z" transform="translate(-0.33)"/><path d="M275.3,198v0a.67.67,0,0,1,.26-.85h0a19,19,0,0,0,8.7-21.62h0a.66.66,0,0,1,.64-.85h0a18.54,18.54,0,0,0,9.33-2.48c3.88-2.2,6.43-7.55,9.65-14.32a144.3,144.3,0,0,1,8.79-16.44c4.19-7.29,11.83-6.85,14.59-6.42a.65.65,0,0,0,.67-.32c1.48-2.59,4.59-4.65,8.42-7.18a93.08,93.08,0,0,0,9.8-7.14h0a.67.67,0,0,1,1.1.44h0a93.65,93.65,0,0,0,2.11,11.94c1.13,5,2,8.94.79,12-.84,2-3.67,5.49-9.22,6.65a.66.66,0,0,0-.43,1c7.42,11.31-.78,21.55-.87,21.66l0,0a20.27,20.27,0,0,1-23.25,4.71.66.66,0,0,0-.9.41,20.1,20.1,0,0,1-4.39,7.61c-3.31,3.6-9.39,5-17.1,6.69a145.76,145.76,0,0,0-17.85,4.86h0A.67.67,0,0,1,275.3,198Zm10.62-21.29a20.28,20.28,0,0,1-6.25,19c5.09-1.58,9.78-2.63,14-3.58,7.48-1.68,13.38-3,16.4-6.29a18.65,18.65,0,0,0,4.5-8.57h0a.67.67,0,0,1,1-.43h0a18.94,18.94,0,0,0,23.05-3.69l0,0c.63-.8,8.28-10.81-.47-21.73h0a.67.67,0,0,1,.47-1.08h0c6.38-.54,9.51-4.25,10.28-6.13,1.08-2.65.23-6.42-.85-11.19-.64-2.86-1.36-6-1.86-9.68a.66.66,0,0,0-1.07-.43c-2.87,2.28-5.59,4.08-8,5.69-4.08,2.7-7.31,4.83-8.36,7.48h0a.67.67,0,0,1-.8.4h0c-.38-.1-9.49-2.46-14.11,5.61l0,0a143.35,143.35,0,0,0-8.72,16.3c-3.32,7-6,12.5-10.19,14.91a19.85,19.85,0,0,1-8.4,2.59A.66.66,0,0,0,285.92,176.68Zm27.34-35Z" transform="translate(-0.33)"/><path d="M203.45,368.65l.25-1.25a95.47,95.47,0,0,0,1.39-12c.33-4.82.59-8.68,2.34-11.25-1.47-1.74-6.44-8.53-1.89-16.22a141.87,141.87,0,0,1,10-15.74c4.3-6.14,7.71-11,7.72-15.45a18.73,18.73,0,0,0-2.45-9.37l-.44-.77.86-.2a19,19,0,0,0,14.53-18,.69.69,0,0,1,.65-.67.68.68,0,0,1,.73.57A146.7,146.7,0,0,0,241.65,286c2.29,7.56,4.1,13.52,2.59,18.17a20,20,0,0,1-5,8.12,20.27,20.27,0,0,1,8,23l0,0c0,.13-4.58,11.47-17,11.47a22.6,22.6,0,0,1-2.42-.13c2.26,5.86.55,10.41-.9,12.25-2,2.58-5.91,3.74-10.82,5.22a94.74,94.74,0,0,0-11.43,4Zm18.9-81.22a20,20,0,0,1,2.22,9.27c0,4.88-3.52,9.88-8,16.21a143,143,0,0,0-9.9,15.62l0,0c-4.74,8,1.79,14.77,2.07,15.05l.42.43-.37.46c-1.79,2.23-2.06,6.08-2.39,11a99.81,99.81,0,0,1-1.19,11,99.06,99.06,0,0,1,10.44-3.59c4.68-1.42,8.38-2.53,10.15-4.77,1.26-1.6,3-6.16.28-12l-.52-1.13,1.23.2c13.95,2.26,18.86-9.6,19.14-10.32a18.93,18.93,0,0,0-8.12-21.9l-.76-.47.66-.59a18.72,18.72,0,0,0,5.24-8.14c1.38-4.25-.38-10-2.6-17.37-1.26-4.16-2.66-8.76-3.79-14A20.32,20.32,0,0,1,222.35,287.43Zm-16.23,40.78Zm29.69-59.75h0Zm1.27-.1h0Z" transform="translate(-0.33)"/><path d="M347.11,278.5l-1-.82a93.26,93.26,0,0,0-9.79-7.15c-4-2.66-7.26-4.8-8.63-7.59-2.24.43-10.6,1.41-15.05-6.34a147.43,147.43,0,0,1-8.78-16.44c-3.22-6.78-5.76-12.13-9.63-14.34a18.74,18.74,0,0,0-9.35-2.48H284l.25-.85A19,19,0,0,0,275.87,201a.7.7,0,0,1-.28-.91.71.71,0,0,1,.88-.37A148.89,148.89,0,0,0,294,204.52c7.7,1.73,13.78,3.1,17.08,6.7a19.91,19.91,0,0,1,4.61,8.34,20.26,20.26,0,0,1,23.93,4.4l0,0c.09.11,8.7,10.87.28,22.5,6.22.92,9.34,4.66,10.22,6.83,1.24,3,.34,7-.79,12a95,95,0,0,0-2.12,11.94Zm-18.6-17.12.22.55c1,2.66,4.28,4.79,8.36,7.49a101.56,101.56,0,0,1,9,6.44,100.44,100.44,0,0,1,2-10.85c1.08-4.77,1.94-8.54.86-11.19-.77-1.89-3.91-5.6-10.28-6.14l-1.25-.11.78-1c8.8-11,.8-21.32.46-21.75a18.94,18.94,0,0,0-23.06-3.72l-.78.43-.19-.87a18.7,18.7,0,0,0-4.5-8.57c-3-3.29-8.92-4.62-16.4-6.3-4.23-.95-8.92-2-14-3.59a20.35,20.35,0,0,1,6.08,19.8,19.84,19.84,0,0,1,9.16,2.64c4.23,2.41,6.86,7.93,10.18,14.91a143.83,143.83,0,0,0,8.7,16.31l0,0c4.63,8.09,14,5.64,14.11,5.62Z" transform="translate(-0.33)"/><path d="M262.4,136.74l-.58-.68a19,19,0,0,0-22.48-4.87.72.72,0,0,1-.73-1.22,150.37,150.37,0,0,0,13.61-12c5.7-5.47,10.2-9.79,15-10.55a20,20,0,0,1,9.5.77,20.26,20.26,0,0,1,16.89-17.52h0c.14,0,13.86-1.26,18.91,12.18,4.2-4.67,9-5.21,11.33-4.74,3.22.64,6,3.57,9.56,7.27a95.21,95.21,0,0,0,8.77,8.37l1,.8L342,115a95.57,95.57,0,0,0-11.36,4.22c-4.45,1.89-8,3.4-11.09,3-.85,2-4.42,9.07-12.65,9.07l-1,0a144.07,144.07,0,0,1-18.55-1.76c-7.42-1.06-13.29-1.89-17.27.12a18.63,18.63,0,0,0-7.24,6.43Zm-15-8.67a20.39,20.39,0,0,1,14.91,6.48,20,20,0,0,1,7.26-6.17c4.35-2.2,10.4-1.34,18.06-.25a144.18,144.18,0,0,0,18.4,1.75h0c9.27.6,12.35-8.28,12.47-8.66l.19-.57.58.13c2.8.58,6.36-.93,10.86-2.84A101.81,101.81,0,0,1,340.44,114a104.52,104.52,0,0,1-7.94-7.67c-3.38-3.54-6.05-6.33-8.85-6.9-2-.4-6.82.17-10.8,5.18l-.77,1-.38-1.19C307.39,91,294.6,92,293.82,92A18.94,18.94,0,0,0,278,109.21l-.07.88-.83-.31a18.58,18.58,0,0,0-9.63-1c-4.41.7-8.78,4.89-14.31,10.19-3.13,3-6.6,6.34-10.74,9.71A20.34,20.34,0,0,1,247.35,128.07Zm-7.94,3h0Zm-.63-1.05h0Z" transform="translate(-0.33)"/><path d="M294,308.48a10.49,10.49,0,0,1-1.41-.07h0A20.28,20.28,0,0,1,276,290.52a20,20,0,0,1-9.51.56c-4.8-.86-9.21-5.28-14.79-10.87a147.87,147.87,0,0,0-13.51-12.38h0a.68.68,0,0,1-.17-.89v0a.69.69,0,0,1,.9-.25,19,19,0,0,0,22.77-4.29l.59-.66.47.75a18.71,18.71,0,0,0,7.09,6.59c3.94,2.09,9.82,1.39,17.27.49a145.41,145.41,0,0,1,18.59-1.36c8.93-.37,12.56,7.22,13.4,9.34,3.09-.33,6.62,1.26,11,3.24a94.15,94.15,0,0,0,11.27,4.47l1.22.37-1,.79a94.39,94.39,0,0,0-9,8.17c-3.62,3.62-6.48,6.49-9.71,7.06-2.31.42-7.13-.23-11.23-5C307.43,307.42,297.65,308.48,294,308.48Zm-1.23-1.39c.77.09,13.54,1.36,18.14-12l.41-1.18.75,1c3.87,5.1,8.68,5.77,10.69,5.41,2.81-.5,5.54-3.23,9-6.7a103.66,103.66,0,0,1,8.09-7.49A103.34,103.34,0,0,1,329.61,282c-4.46-2-8-3.6-10.79-3.07l-.58.11-.18-.57c-.11-.38-3-9.33-12.28-8.93h0a145.59,145.59,0,0,0-18.44,1.34c-7.68.93-13.75,1.66-18.05-.64a19.91,19.91,0,0,1-7.12-6.33,20.35,20.35,0,0,1-20,5.44c4.06,3.45,7.46,6.86,10.53,9.93,5.41,5.43,9.68,9.71,14.08,10.5a18.64,18.64,0,0,0,9.65-.78l.83-.29.06.88A18.92,18.92,0,0,0,292.76,307.09ZM239,266.78h0Z" transform="translate(-0.33)"/><path d="M365.91,235.13l-.64-2.14c-1.2-4-2.48-7.25-3.61-10.11-1.62-4.11-2.9-7.35-2.89-10.49v-.08a15.68,15.68,0,0,1,.78-4.84,11.44,11.44,0,0,1-2.67.35h-.09c-2.77,0-5.59-1.49-9.16-3.37a87.89,87.89,0,0,0-8.73-4.15l-1.56-.62,1.56-.62a87.89,87.89,0,0,0,8.73-4.15c3.57-1.88,6.39-3.37,9.16-3.37h.09a11.21,11.21,0,0,1,2.66.35,15.68,15.68,0,0,1-.77-4.84V187c0-3.14,1.27-6.38,2.89-10.49,1.13-2.85,2.41-6.09,3.61-10.1l.64-2.14.63,2.14c1.2,4,2.48,7.25,3.61,10.1,1.62,4.11,2.9,7.35,2.89,10.49v0a13.72,13.72,0,0,1-2.81,8.67l-2.49,2.89,1,1.11-1,1.11,2.49,2.89a13.7,13.7,0,0,1,2.81,8.64v.07c0,3.14-1.27,6.38-2.89,10.49-1.13,2.86-2.41,6.09-3.61,10.11Zm-9.1-42.25h0c-2.44,0-5,1.35-8.54,3.21-2.13,1.12-4.51,2.37-7.36,3.59,2.85,1.22,5.23,2.47,7.36,3.59,3.54,1.87,6.1,3.22,8.54,3.22h.07a9.5,9.5,0,0,0,3.58-.73l1.57-.65-.71,1.55a13.91,13.91,0,0,0-1.2,5.66v.07c0,2.89,1.17,5.87,2.8,10,.94,2.38,2,5,3,8.16,1-3.14,2.06-5.78,3-8.16,1.63-4.13,2.81-7.11,2.8-10v-.08a12.34,12.34,0,0,0-2.49-7.77L366,200.78l1-1.1-.95-1.1,3.24-3.77a12.34,12.34,0,0,0,2.49-7.77v0c0-2.92-1.17-5.9-2.8-10-.94-2.38-2-5-3-8.16-1,3.14-2.07,5.78-3,8.16-1.63,4.13-2.8,7.11-2.8,10V187a14,14,0,0,0,1.19,5.66l.71,1.54-1.57-.64a9.58,9.58,0,0,0-3.56-.71Z" transform="translate(-0.33)"/><path d="M286.5,335.54a8.82,8.82,0,0,1,.92,1.71,12.74,12.74,0,0,1,2.71-2.56l0,0c2.08-1.46,4.8-2.1,8.24-2.91,2.39-.57,5.09-1.21,8.26-2.25l2.12-.7-1.39,1.75c-2.08,2.61-3.62,4.92-5,7-2,2.95-3.51,5.28-5.59,6.72l0,0a11,11,0,0,1-7,2.12l-2.92-.3-.28,1.14-1.17-.13-.73,2.84a11,11,0,0,1-4.43,5.86l-.05,0c-2.07,1.45-4.79,2.09-8.24,2.91-2.38.56-5.08,1.2-8.25,2.24l-2.12.7,1.39-1.75c2.08-2.61,3.62-4.92,5-7,2-3,3.51-5.27,5.59-6.72l.05,0a12.52,12.52,0,0,1,3.34-1.65,9.3,9.3,0,0,1-1.29-1.45l0-.05c-1.29-1.84-1.61-4.38-2-7.61a67.16,67.16,0,0,0-1.26-7.6l-.38-1.63,1.4.92A67.8,67.8,0,0,0,280,331c2.89,1.49,5.17,2.68,6.44,4.52Zm9.58,7.59c1.87-1.29,3.28-3.42,5.24-6.36,1.07-1.61,2.26-3.4,3.73-5.37-2.36.7-4.44,1.2-6.33,1.64-3.43.82-5.92,1.4-7.78,2.71h0a11,11,0,0,0-3.15,3.34l-.86,1.46-.37-1.66a7.5,7.5,0,0,0-1.14-2.61l0,0c-1.09-1.57-3.14-2.63-6-4.1-1.64-.85-3.46-1.79-5.46-3,.46,2.3.72,4.33.94,6.17.4,3.16.68,5.44,1.78,7l0,0a7.43,7.43,0,0,0,2.06,2l1.44.92-1.68.3a11,11,0,0,0-4.21,1.78l0,0c-1.87,1.3-3.29,3.42-5.24,6.36-1.07,1.61-2.26,3.4-3.74,5.37,2.37-.7,4.45-1.2,6.34-1.64,3.43-.81,5.91-1.4,7.78-2.71l0,0a9.81,9.81,0,0,0,3.91-5.1l1-4,1.16.14.28-1.13,4.07.42a9.8,9.8,0,0,0,6.13-1.9Zm-5.14-7.38" transform="translate(-0.33)"/><path d="M272.2,74.51l.38-1.63a70,70,0,0,0,1.26-7.61c.39-3.22.71-5.77,2-7.61l0,0a8.86,8.86,0,0,1,1.28-1.45,12.52,12.52,0,0,1-3.34-1.65l-.05,0c-2.08-1.44-3.63-3.77-5.59-6.71-1.36-2-2.9-4.35-5-7l-1.39-1.75,2.12.7c3.17,1,5.87,1.68,8.26,2.24,3.44.81,6.16,1.45,8.24,2.9l.05,0a11,11,0,0,1,4.43,5.85l.74,2.84,1.17-.13.28,1.14,2.91-.31a11.11,11.11,0,0,1,7,2.12l0,0c2.08,1.44,3.63,3.77,5.59,6.72,1.36,2,2.9,4.34,5,7l1.39,1.75-2.12-.7c-3.17-1-5.87-1.68-8.26-2.24-3.44-.81-6.16-1.45-8.24-2.9l-.05,0a12.74,12.74,0,0,1-2.71-2.56,9,9,0,0,1-.91,1.71l0,0c-1.28,1.85-3.56,3-6.44,4.53a67.8,67.8,0,0,0-6.69,3.82ZM279.66,46c-1.87-1.3-4.35-1.88-7.79-2.69-1.89-.45-4-.94-6.33-1.64,1.48,2,2.66,3.75,3.74,5.37,2,2.93,3.37,5.06,5.24,6.35l.05,0a11,11,0,0,0,4.19,1.78l1.67.3-1.42.92a7.53,7.53,0,0,0-2.05,2l0,0c-1.1,1.57-1.38,3.86-1.77,7-.23,1.83-.48,3.86-.94,6.16,2-1.23,3.82-2.18,5.45-3,2.83-1.46,4.87-2.52,6-4.1l0,0a7.42,7.42,0,0,0,1.14-2.63l.36-1.67.87,1.48a11.16,11.16,0,0,0,3.13,3.32l0,0c1.87,1.3,4.35,1.89,7.79,2.7,1.89.44,4,.93,6.33,1.63-1.48-2-2.66-3.75-3.74-5.36-1.95-2.94-3.37-5.06-5.24-6.36l0,0a9.88,9.88,0,0,0-6.17-1.9l-4.07.42L285.79,55l-1.16.13-1-4A9.75,9.75,0,0,0,279.7,46Z" transform="translate(-0.33)"/><path d="M250.06,108.06l1-3.82a66.1,66.1,0,0,0,1.53-7.45c.54-3.33,1-6,2.47-7.94l0,0a9.26,9.26,0,0,1,6.51-3.68l6-.42,1.24,6a9.19,9.19,0,0,1-1.74,7.16l0,.05c-1.49,2-3.9,3.12-6.95,4.56a66.94,66.94,0,0,0-6.75,3.52Zm11.8-19.78a6.11,6.11,0,0,0-4.23,2.44l0,0c-1,1.33-1.36,3.51-1.85,6.52-.21,1.31-.44,2.71-.75,4.23,1.38-.72,2.66-1.32,3.86-1.88,2.76-1.31,4.75-2.25,5.77-3.6l0,0a6,6,0,0,0,1.18-4.65L265.14,88Z" transform="translate(-0.33)"/><path d="M266.82,315.84l-6-.67a9.22,9.22,0,0,1-6.35-3.94l0,0c-1.42-2-1.74-4.68-2.14-8a68.71,68.71,0,0,0-1.23-7.51l-.88-3.86,3.29,2.19a69.58,69.58,0,0,0,6.6,3.79c3,1.56,5.36,2.8,6.76,4.84l0,.06a9.17,9.17,0,0,1,1.43,7.21Zm-2.59-11.45c-1-1.39-2.91-2.41-5.62-3.83-1.17-.61-2.43-1.26-3.78-2,.25,1.54.42,3,.58,4.26.37,3,.64,5.22,1.6,6.61l0,0a6.07,6.07,0,0,0,4.11,2.61l3.27.36.82-3.28a6.09,6.09,0,0,0-1-4.69Z" transform="translate(-0.33)"/><path d="M314.15,206.72c-2.38-.24-4.58-1.61-7.36-3.34a66.53,66.53,0,0,0-6.62-3.75l-3.56-1.73,3.78-1.19a70.72,70.72,0,0,0,7.08-2.77c3.1-1.35,5.54-2.42,8-2.24h.06a9.11,9.11,0,0,1,6.53,3.4l3.72,4.89-4.29,4.26a9.24,9.24,0,0,1-7.05,2.49h-.06Zm-9.37-8.23c1.35.77,2.56,1.52,3.68,2.22,2.59,1.61,4.47,2.78,6.15,2.89h.07a6.12,6.12,0,0,0,4.6-1.58l2.33-2.32L319.56,197a6.07,6.07,0,0,0-4.27-2.17h-.06c-1.67-.12-3.69.76-6.49,2C307.53,197.35,306.23,197.92,304.78,198.49Z" transform="translate(-0.33)"/><path d="M200.47,248.57c-8,0-14.81-5.54-18.42-14.84-9.64,1.4-17.75-1.9-21.62-8.61-4.28-7.41-2.36-16.94,5-25-7.35-8-9.27-17.57-5-25,3.27-5.67,9.57-8.93,17.28-8.93a29.64,29.64,0,0,1,4.34.33c3.61-9.31,10.46-14.85,18.42-14.85s14.81,5.54,18.42,14.85a29.64,29.64,0,0,1,4.34-.33c7.7,0,14,3.26,17.28,8.93,4.28,7.42,2.36,16.94-5,25,7.35,8,9.27,17.57,5,25-3.87,6.71-12,10-21.62,8.61C215.28,243,208.43,248.57,200.47,248.57Zm-17.55-16.33.19.51c3.35,9.07,9.84,14.49,17.36,14.49s14-5.42,17.36-14.49l.19-.51.54.09a29.2,29.2,0,0,0,4.66.39c7.22,0,13.1-3,16.14-8.26,4-7,2-16.17-5.24-23.86l-.43-.46.43-.46c7.29-7.69,9.29-16.84,5.24-23.86-3-5.25-8.91-8.26-16.13-8.26a29.23,29.23,0,0,0-4.67.39L218,168l-.19-.52C214.48,158.45,208,153,200.47,153s-14,5.41-17.36,14.48l-.19.52-.54-.09a29.23,29.23,0,0,0-4.67-.39c-7.22,0-13.1,3-16.13,8.26-4.05,7-2.05,16.17,5.24,23.86l.43.46-.43.46c-7.29,7.69-9.29,16.83-5.24,23.86,3,5.25,8.92,8.26,16.13,8.26a29.23,29.23,0,0,0,4.67-.39Z" transform="translate(-0.33)"/><path d="M200.47,239.59c-6.07,0-11-7.34-11.83-17.13a26.86,26.86,0,0,1-10.93,2.61h-.08c-4.44,0-7.78-1.59-9.43-4.44s-1.32-6.7,1-10.65a28.67,28.67,0,0,1,10.35-9.72l.21-.12-.21-.12a28.75,28.75,0,0,1-10.35-9.72c-2.34-4-2.7-7.74-1-10.66s5-4.42,9.43-4.44h.08a26.88,26.88,0,0,1,10.93,2.62c.82-9.79,5.76-17.14,11.83-17.14s11,7.35,11.83,17.14a26.83,26.83,0,0,1,10.92-2.62h.09c4.43,0,7.78,1.6,9.42,4.44s1.33,6.7-1,10.66A28.75,28.75,0,0,1,221.37,200l-.21.12.21.12A28.67,28.67,0,0,1,231.72,210c2.34,4,2.7,7.74,1,10.65s-5,4.43-9.42,4.44a26.81,26.81,0,0,1-11-2.61C211.48,232.25,206.53,239.59,200.47,239.59Zm-8.84-22.26,0,2.62c.11,8.94,4.14,16.49,8.8,16.49s8.69-7.55,8.8-16.49l0-2.62,2.3,1.26c7.83,4.28,16.08,4.49,18.41.47,1.09-1.89.73-4.54-1-7.48a25.68,25.68,0,0,0-9.22-8.6c-.88-.51-1.81-1-2.75-1.41l-3.19-1.43L217,198.7a29.64,29.64,0,0,0,2.75-1.41,25.59,25.59,0,0,0,9.22-8.6c1.73-2.93,2.09-5.59,1-7.47-2.33-4-10.58-3.82-18.41.47L209.3,183l0-2.62c-.11-8.94-4.14-16.5-8.8-16.5s-8.69,7.56-8.8,16.5l0,2.62-2.29-1.26c-7.83-4.29-16.08-4.5-18.41-.47-1.09,1.88-.73,4.54,1,7.47a25.51,25.51,0,0,0,9.22,8.6,30.89,30.89,0,0,0,2.75,1.41l3.19,1.44-3.19,1.43c-.94.43-1.87.9-2.75,1.41a25.59,25.59,0,0,0-9.22,8.6c-1.73,2.94-2.09,5.59-1,7.48,2.33,4,10.58,3.81,18.41-.47Z" transform="translate(-0.33)"/></svg>