<svg id="Layer_1" data-name="Layer 1" xmlns="http://www.w3.org/2000/svg" width="600.1" height="274.2" viewBox="0 0 600.1 274.2">
  <path class="cls-1" d="M259.2,97.6l.7.6-6,18.2a21.32,21.32,0,0,0-5.5-.8H194.1v-1.1a11.29,11.29,0,0,0,2.8-7.6V26.2a11.51,11.51,0,0,0-2.8-7.6V17.5h19.6v1.1c-1.8,2.8-2.8,5.3-2.8,7.6v80.2h29.5A23.67,23.67,0,0,0,259.2,97.6Z" transform="translate(0 -13.7)"/>
  <path class="cls-1" d="M99,103.5V72a17.07,17.07,0,0,1,1.2-6.7v-.7H77.1v1.3c4.4,1,7,4.9,7,9.3V105c-9.2,4.9-18.4,7.5-27.5,7.5a38.24,38.24,0,0,1-28.6-12c-7.6-7.9-11.3-19.3-11.3-34.1,0-14.4,3.8-25,11.5-32S45.9,23.9,58.3,23.9c10.6,0,20.7,3.1,30.5,9.3l4.8-13.5a90.37,90.37,0,0,0-32.8-6Q32.9,13.7,16.3,30C5.4,40.9,0,54.3,0,70.5c0,15.7,5.3,28.4,15.7,38.1S38.8,123,53.5,123a73,73,0,0,0,20.6-3.1,102.27,102.27,0,0,0,16.3-5.8,93.72,93.72,0,0,0,10.1-5.7v-.7Q99,106.65,99,103.5Z" transform="translate(0 -13.7)"/>
  <path class="cls-1" d="M164,106.4H134V63.8h19.7a16.55,16.55,0,0,1,8.4,2.5h.6v-13h-.6a7.29,7.29,0,0,1-4.9,1.7H134V26.3h23.5c8,0,11.2,2,14,8.1h.6v-18h-.6c-1.4.7-3.9,1.1-7.7,1.1H117.2v1.1a11.29,11.29,0,0,1,2.8,7.6v80.6a11.51,11.51,0,0,1-2.8,7.6v1.1h54.7a27.54,27.54,0,0,1,5.5.8l6.2-18.2-.8-.6A23.72,23.72,0,0,1,164,106.4Z" transform="translate(0 -13.7)"/>
  <path class="cls-1" d="M375.5,26.2a8.31,8.31,0,0,1,3.4-7.6V17.5H358.2L327.5,89.6l-30-72.1h-22v1.1a8.7,8.7,0,0,1,3.4,7.6L274,97.1c-.7,8.5-2.4,14.3-5.2,17.4v1.1h16.9c-2-3.2-2.7-8.7-2.1-16.2l4.5-67.9,35.6,85.2h2.1l35.8-85,4.3,67.6q.9,10.65-2.1,16.2h21.7v-1.1c-2.9-3.6-4.6-9.4-5.2-17.4Z" transform="translate(0 -13.7)"/>
  <path class="cls-1" d="M581.4,17.5c2.4,3.6,3.5,7.5,3.5,15.1l.3,55.4L512.6,16.7H494.5l-.3,1.6c3.7,1.9,6.5,6.6,6.5,11.6l.3,78.2c0,3-1.5,5.1-3.6,7.3v1.1l19.3-.1c-2.4-3.6-3.7-9-3.7-16.6l-.3-61.4c0-.3.4-.5.6-.3l80.5,79.4,3.3-.1-.2-92.2a10.57,10.57,0,0,1,3.2-7.7V16.4H581.5v1.1Z" transform="translate(0 -13.7)"/>
  <path class="cls-1" d="M482,101.8,446.3,17.2H432.2v1.1a11,11,0,0,1,.4,11.1L402,101.8a30.86,30.86,0,0,1-6.4,9.6,42,42,0,0,1-3.9,3.4v1.1h18.2c-.4-4.9.8-10.9,3.5-17.8l8.9-21.4h33.9l8.9,21.4c2.7,6.6,3.9,12.6,3.5,17.8H492v-1.1A34.21,34.21,0,0,1,482,101.8ZM426,68l13.3-31.9L452.5,68Z" transform="translate(0 -13.7)"/>
  <path class="cls-1" d="M505.8,274.2c.4,5.6,1.7,9.4,3.4,12v.9h-15c1.3-2.6,1.7-6.4,1.3-11.1l-3-46.7-24.8,58.6h-1.3l-24.8-59.1-3,47.1c-.4,5.1,0,9,1.3,11.1H428.3v-.9c2.1-2.1,3-6,3.4-12l3.4-49.2c0-2.1-.4-3.9-2.1-5.1V219h15.4l20.5,50.1L490.3,219h14.1v.9a4.78,4.78,0,0,0-2.1,5.1Z" transform="translate(0 -13.7)"/>
  <path class="cls-1" d="M168.3,274.2c.4,5.6,1.7,9.4,3.4,12v.9h-15c1.3-2.6,1.7-6.4,1.3-11.1l-3-46.7-24.8,58.6h-1.3l-24.8-59.1-3,47.1c-.4,5.1,0,9,1.3,11.1H90.8v-.9c2.1-2.1,3-6,3.4-12l3.4-49.2c0-2.1-.4-3.9-2.1-5.1V219h15.4l20.5,50.1L152.8,219H167v.9a4.78,4.78,0,0,0-2.1,5.1Z" transform="translate(0 -13.7)"/>
  <path class="cls-1" d="M242.2,219.4c-1.1,1.6-2.2,3.2-2.2,5.4v56.1a6.62,6.62,0,0,0,2.2,5.4v.5H231.4c0-2.2-.5-4.9-.5-8.1a32.42,32.42,0,0,1-11.3,6.5,40.51,40.51,0,0,1-13.5,2.7c-13.5,0-21.6-8.1-21.6-21V224.8a6.62,6.62,0,0,0-2.2-5.4v-.5h13.5c-1.6,2.7-2.2,5.9-2.2,11.3v34c0,11.3,5.4,17.3,15.1,17.3a25.73,25.73,0,0,0,12.4-3.2c3.8-2.2,7-4.3,8.6-7v-41c0-5.4-.5-8.6-2.2-11.3h14v.5h.7Z" transform="translate(0 -13.7)"/>
  <path class="cls-1" d="M290.1,228.5c-4.9-3.2-9.7-4.9-15.1-4.9-7.6,0-11.9,4.3-11.9,9.2,0,2.7,1.1,4.9,3.8,7a39.86,39.86,0,0,0,8.1,4.9,2.6,2.6,0,0,1,1.6,1.1,72,72,0,0,1,10.3,6.5c5.4,3.8,8.1,8.1,8.1,15.1a21.3,21.3,0,0,1-5.9,14.6c-3.8,3.8-9.2,5.9-16.2,5.9a38.35,38.35,0,0,1-20-5.4l-2.2-11.9h.5a32.2,32.2,0,0,0,8.6,7.6,22.86,22.86,0,0,0,11.9,3.2c8.1,0,13.5-5.4,13.5-11.9a12.34,12.34,0,0,0-5.4-10.3,16.23,16.23,0,0,0-4.3-3.2,32.25,32.25,0,0,1-5.4-3.2l-5.4-2.7-4.3-2.7a34,34,0,0,1-3.8-3.2,15.77,15.77,0,0,1-3.2-9.2c0-4.9,1.6-9.2,5.4-12.4s8.6-4.9,15.1-4.9a44.24,44.24,0,0,1,15.1,2.2Z" transform="translate(0 -13.7)"/>
  <path class="cls-1" d="M349.3,275.5,345,287.9a11.36,11.36,0,0,0-3.8-.5H303.4v-.5c1.1-1.6,2.2-3.2,2.2-5.4V225.4a6.62,6.62,0,0,0-2.2-5.4v-.5h32.4c2.7,0,4.3,0,5.4-.5h.5v12.4h-.5c-2.2-4.3-4.3-5.4-9.7-5.4H315.3v20h16.2a4.19,4.19,0,0,0,3.2-1.1h.5v9.2h-.5a12.11,12.11,0,0,0-5.9-1.6H315.3V282h21C341.2,280.9,345.5,279.3,349.3,275.5Z" transform="translate(0 -13.7)"/>
  <path class="cls-1" d="M414.5,219.4c-1.1,1.6-2.2,3.2-2.2,5.4v56.1a6.62,6.62,0,0,0,2.2,5.4v.5H403.7c0-2.2-.5-4.9-.5-8.1a32.42,32.42,0,0,1-11.3,6.5,40.51,40.51,0,0,1-13.5,2.7c-13.5,0-21.6-8.1-21.6-21V224.8a6.62,6.62,0,0,0-2.2-5.4v-.5h14c-1.6,2.7-2.2,5.9-2.2,11.3v34c0,11.3,5.4,17.3,15.1,17.3a25.73,25.73,0,0,0,12.4-3.2c3.8-2.2,7-4.3,8.6-7v-41c0-5.4-.5-8.6-2.2-11.3h14v.4Z" transform="translate(0 -13.7)"/>
  <path class="cls-1" d="M59.8,160a8.52,8.52,0,0,0-6.2-3.4c-3.9,0-5.6,2.8-5.6,4.5a3.12,3.12,0,0,0,1.1,2.8c1.1,1.1,2.2,1.1,4.5,2.2a33.78,33.78,0,0,1,7.9,3.9,10.32,10.32,0,0,1,3.4,7.9c0,7.3-5.6,12.9-13.5,12.9-7.3,0-11.2-4.5-13.5-7.3L43,179a8.75,8.75,0,0,0,7.9,5.1c3.4,0,6.2-2.2,6.2-5.6a5.24,5.24,0,0,0-1.7-3.4,22.09,22.09,0,0,0-6.2-2.8,19.31,19.31,0,0,1-6.7-3.4,10,10,0,0,1-3.4-7.3c0-5.6,3.9-11.2,12.4-11.2a16.29,16.29,0,0,1,11.2,4.5Z" transform="translate(0 -13.7)"/>
  <path class="cls-1" d="M93.3,157.7v32.6H86V157.7H77V151h25.3v6.7Z" transform="translate(0 -13.7)"/>
  <path class="cls-1" d="M137.4,181.3H121.7l-3.4,7.9h-8.4l16.9-38.8H133l16.3,38.8h-7.9Zm-2.2-6.2L129.6,161,124,175.1Z" transform="translate(0 -13.7)"/>
  <path class="cls-1" d="M171.5,151v38.8h-7.3V151Z" transform="translate(0 -13.7)"/>
  <path class="cls-1" d="M190.8,189.8V151h5.1l23.6,25.9V151h7.3v38.8h-5.1l-23.6-25.9v25.9Z" transform="translate(0 -13.7)"/>
  <path class="cls-1" d="M267.6,157.1H253.5v8.4H267v6.7H253.5V183h14.1v6.7H246.2V151h21.4Z" transform="translate(0 -13.7)"/>
  <path class="cls-1" d="M295.4,151c5.6,0,10.1.6,14.6,3.9s7.3,9,7.3,15.7a18.78,18.78,0,0,1-7.9,15.7c-4.5,3.4-9,3.9-14.1,3.9H285.2V151.4C285.3,151,295.4,151,295.4,151Zm-2.8,32h2.2c1.7,0,6.2,0,9.6-2.8a12,12,0,0,0,5.1-10.1,15.52,15.52,0,0,0-4.5-10.7,18.51,18.51,0,0,0-9.6-2.8h-2.2V183Z" transform="translate(0 -13.7)"/>
  <path class="cls-1" d="M377.6,169h18v.6c0,2.8-.6,10.7-5.6,15.7a18.68,18.68,0,0,1-13.5,5.1c-5.1,0-9.6-1.1-14.1-5.1a21.11,21.11,0,0,1-5.6-14.6c0-7.3,3.4-11.8,5.6-14.6a21.36,21.36,0,0,1,15.2-6.2,18.7,18.7,0,0,1,9,2.2,18.07,18.07,0,0,1,7.3,7.3l-6.7,3.4a8.75,8.75,0,0,0-4.5-4.5,18.81,18.81,0,0,0-5.6-1.1,12.6,12.6,0,0,0-9,3.4,14,14,0,0,0-3.9,10.1c0,5.1,2.2,8.4,3.9,9.6a11.73,11.73,0,0,0,8.4,3.4c2.8,0,5.6-.6,7.3-2.2,1.7-1.1,2.8-3.4,3.9-6.2H377.6Z" transform="translate(0 -13.7)"/>
  <path class="cls-1" d="M421.5,151v32h11.8v6.7H413.6V151Z" transform="translate(0 -13.7)"/>
  <path class="cls-1" d="M472.7,181.3H457l-3.4,7.9h-7.9l16.9-38.8h5.6l16.3,38.8h-7.9Zm-2.2-6.2L464.9,161l-5.6,14.1Z" transform="translate(0 -13.7)"/>
  <path class="cls-1" d="M517.4,160a8.52,8.52,0,0,0-6.2-3.4c-3.9,0-5.1,2.8-5.1,4.5a3.12,3.12,0,0,0,1.1,2.8c1.1,1.1,2.2,1.1,4.5,2.2a33.78,33.78,0,0,1,7.9,3.9,10.32,10.32,0,0,1,3.4,7.9c0,7.3-5.6,12.9-13.5,12.9-7.3,0-11.2-4.5-13.5-7.3l5.1-4.5a8.75,8.75,0,0,0,7.9,5.1c3.4,0,6.2-2.2,6.2-5.1a5.24,5.24,0,0,0-1.7-3.4,22.09,22.09,0,0,0-6.2-2.8,14.12,14.12,0,0,1-6.2-3.4,10,10,0,0,1-3.4-7.3c0-5.6,3.9-11.2,12.4-11.2a16.29,16.29,0,0,1,11.2,4.5Z" transform="translate(0 -13.7)"/>
  <path class="cls-1" d="M556.5,160a8.52,8.52,0,0,0-6.2-3.4c-3.9,0-5.1,2.8-5.1,4.5a3.12,3.12,0,0,0,1.1,2.8c1.1,1.1,2.2,1.1,4.5,2.2a33.78,33.78,0,0,1,7.9,3.9,10.32,10.32,0,0,1,3.4,7.9c0,7.3-5.6,12.9-13.5,12.9-7.3,0-11.2-4.5-13.5-7.3l5.1-4.5a8.75,8.75,0,0,0,7.9,5.1c3.4,0,6.2-2.2,6.2-5.1a5.24,5.24,0,0,0-1.7-3.4,22.09,22.09,0,0,0-6.2-2.8,14.12,14.12,0,0,1-6.2-3.4,10,10,0,0,1-3.4-7.3c0-5.6,3.9-11.2,12.4-11.2a16.29,16.29,0,0,1,11.2,4.5Z" transform="translate(0 -13.7)"/>
</svg>
